<svg id="my-svg" width="5958.232421875" height="452.9375" xmlns="http://www.w3.org/2000/svg" xmlns:xlink="http://www.w3.org/1999/xlink" class="flowchart" style="background-color: white;" viewBox="0 0 5958.232421875 452.9375" role="graphics-document document" aria-roledescription="flowchart-v2"><style>#my-svg{font-family:Helvetica Neue,Helvetica,Arial,sans-serif;font-size:13px;fill:#333;}@keyframes edge-animation-frame{from{stroke-dashoffset:0;}}@keyframes dash{to{stroke-dashoffset:0;}}#my-svg .edge-animation-slow{stroke-dasharray:9,5!important;stroke-dashoffset:900;animation:dash 50s linear infinite;stroke-linecap:round;}#my-svg .edge-animation-fast{stroke-dasharray:9,5!important;stroke-dashoffset:900;animation:dash 20s linear infinite;stroke-linecap:round;}#my-svg .error-icon{fill:hsl(220.5882352941, 100%, 98.3333333333%);}#my-svg .error-text{fill:rgb(8.5000000002, 5.7500000001, 0);stroke:rgb(8.5000000002, 5.7500000001, 0);}#my-svg .edge-thickness-normal{stroke-width:1px;}#my-svg .edge-thickness-thick{stroke-width:3.5px;}#my-svg .edge-pattern-solid{stroke-dasharray:0;}#my-svg .edge-thickness-invisible{stroke-width:0;fill:none;}#my-svg .edge-pattern-dashed{stroke-dasharray:3;}#my-svg .edge-pattern-dotted{stroke-dasharray:2;}#my-svg .marker{fill:#0b0b0b;stroke:#0b0b0b;}#my-svg .marker.cross{stroke:#0b0b0b;}#my-svg svg{font-family:Helvetica Neue,Helvetica,Arial,sans-serif;font-size:13px;}#my-svg p{margin:0;}#my-svg .label{font-family:Helvetica Neue,Helvetica,Arial,sans-serif;color:#333;}#my-svg .cluster-label text{fill:rgb(8.5000000002, 5.7500000001, 0);}#my-svg .cluster-label span{color:rgb(8.5000000002, 5.7500000001, 0);}#my-svg .cluster-label span p{background-color:transparent;}#my-svg .label text,#my-svg span{fill:#333;color:#333;}#my-svg .node rect,#my-svg .node circle,#my-svg .node ellipse,#my-svg .node polygon,#my-svg .node path{fill:#fff4dd;stroke:hsl(40.5882352941, 60%, 83.3333333333%);stroke-width:1px;}#my-svg .rough-node .label text,#my-svg .node .label text,#my-svg .image-shape .label,#my-svg .icon-shape .label{text-anchor:middle;}#my-svg .node .katex path{fill:#000;stroke:#000;stroke-width:1px;}#my-svg .rough-node .label,#my-svg .node .label,#my-svg .image-shape .label,#my-svg .icon-shape .label{text-align:center;}#my-svg .node.clickable{cursor:pointer;}#my-svg .root .anchor path{fill:#0b0b0b!important;stroke-width:0;stroke:#0b0b0b;}#my-svg .arrowheadPath{fill:#0b0b0b;}#my-svg .edgePath .path{stroke:#0b0b0b;stroke-width:2.0px;}#my-svg .flowchart-link{stroke:#0b0b0b;fill:none;}#my-svg .edgeLabel{background-color:hsl(-79.4117647059, 100%, 93.3333333333%);text-align:center;}#my-svg .edgeLabel p{background-color:hsl(-79.4117647059, 100%, 93.3333333333%);}#my-svg .edgeLabel rect{opacity:0.5;background-color:hsl(-79.4117647059, 100%, 93.3333333333%);fill:hsl(-79.4117647059, 100%, 93.3333333333%);}#my-svg .labelBkg{background-color:rgba(243.9999999999, 220.9999999998, 255, 0.5);}#my-svg .cluster rect{fill:hsl(220.5882352941, 100%, 98.3333333333%);stroke:hsl(220.5882352941, 60%, 88.3333333333%);stroke-width:1px;}#my-svg .cluster text{fill:rgb(8.5000000002, 5.7500000001, 0);}#my-svg .cluster span{color:rgb(8.5000000002, 5.7500000001, 0);}#my-svg div.mermaidTooltip{position:absolute;text-align:center;padding:2px;font-family:Helvetica Neue,Helvetica,Arial,sans-serif;font-size:12px;background:hsl(220.5882352941, 100%, 98.3333333333%);border:1px solid hsl(220.5882352941, 60%, 88.3333333333%);border-radius:2px;pointer-events:none;z-index:100;}#my-svg .flowchartTitleText{text-anchor:middle;font-size:18px;fill:#333;}#my-svg rect.text{fill:none;stroke-width:0;}#my-svg .icon-shape,#my-svg .image-shape{background-color:hsl(-79.4117647059, 100%, 93.3333333333%);text-align:center;}#my-svg .icon-shape p,#my-svg .image-shape p{background-color:hsl(-79.4117647059, 100%, 93.3333333333%);padding:2px;}#my-svg .icon-shape .label rect,#my-svg .image-shape .label rect{opacity:0.5;background-color:hsl(-79.4117647059, 100%, 93.3333333333%);fill:hsl(-79.4117647059, 100%, 93.3333333333%);}#my-svg .label-icon{display:inline-block;height:1em;overflow:visible;vertical-align:-0.125em;}#my-svg .node .label-icon path{fill:currentColor;stroke:revert;stroke-width:revert;}#my-svg :root{--mermaid-font-family:Helvetica Neue,Helvetica,Arial,sans-serif;}</style><g><marker id="my-svg_flowchart-v2-pointEnd" class="marker flowchart-v2" viewBox="0 0 10 10" refX="5" refY="5" markerUnits="userSpaceOnUse" markerWidth="8" markerHeight="8" orient="auto"><path d="M 0 0 L 10 5 L 0 10 z" class="arrowMarkerPath" style="stroke-width: 1; stroke-dasharray: 1, 0;"/></marker><marker id="my-svg_flowchart-v2-pointStart" class="marker flowchart-v2" viewBox="0 0 10 10" refX="4.5" refY="5" markerUnits="userSpaceOnUse" markerWidth="8" markerHeight="8" orient="auto"><path d="M 0 5 L 10 10 L 10 0 z" class="arrowMarkerPath" style="stroke-width: 1; stroke-dasharray: 1, 0;"/></marker><marker id="my-svg_flowchart-v2-circleEnd" class="marker flowchart-v2" viewBox="0 0 10 10" refX="11" refY="5" markerUnits="userSpaceOnUse" markerWidth="11" markerHeight="11" orient="auto"><circle cx="5" cy="5" r="5" class="arrowMarkerPath" style="stroke-width: 1; stroke-dasharray: 1, 0;"/></marker><marker id="my-svg_flowchart-v2-circleStart" class="marker flowchart-v2" viewBox="0 0 10 10" refX="-1" refY="5" markerUnits="userSpaceOnUse" markerWidth="11" markerHeight="11" orient="auto"><circle cx="5" cy="5" r="5" class="arrowMarkerPath" style="stroke-width: 1; stroke-dasharray: 1, 0;"/></marker><marker id="my-svg_flowchart-v2-crossEnd" class="marker cross flowchart-v2" viewBox="0 0 11 11" refX="12" refY="5.2" markerUnits="userSpaceOnUse" markerWidth="11" markerHeight="11" orient="auto"><path d="M 1,1 l 9,9 M 10,1 l -9,9" class="arrowMarkerPath" style="stroke-width: 2; stroke-dasharray: 1, 0;"/></marker><marker id="my-svg_flowchart-v2-crossStart" class="marker cross flowchart-v2" viewBox="0 0 11 11" refX="-1" refY="5.2" markerUnits="userSpaceOnUse" markerWidth="11" markerHeight="11" orient="auto"><path d="M 1,1 l 9,9 M 10,1 l -9,9" class="arrowMarkerPath" style="stroke-width: 2; stroke-dasharray: 1, 0;"/></marker><g class="root"><g class="clusters"><g class="cluster" id="P6" data-look="classic"><rect style="" x="4912.482273101807" y="106.515625" width="1037.75" height="304.65625"/><g class="cluster-label" transform="translate(5283.365085601807, 106.515625)"><foreignObject width="295.984375" height="19.5"><div xmlns="http://www.w3.org/1999/xhtml" style="display: table-cell; white-space: nowrap; line-height: 1.5;"><span class="nodeLabel"><p>Phase 6: Post-Implementation and Future Planning</p></span></div></foreignObject></g></g><g class="cluster" id="P5" data-look="classic"><rect style="" x="3520.0135231018066" y="8" width="1342.46875" height="408.4296875"/><g class="cluster-label" transform="translate(4038.4510231018066, 8)"><foreignObject width="305.59375" height="19.5"><div xmlns="http://www.w3.org/1999/xhtml" style="display: table-cell; white-space: nowrap; line-height: 1.5;"><span class="nodeLabel"><p>Phase 5: Action Plan Implementation and Monitoring</p></span></div></foreignObject></g></g><g class="cluster" id="P4" data-look="classic"><rect style="" x="2580.4666481018066" y="8" width="889.546875" height="358.5"/><g class="cluster-label" transform="translate(2874.5057106018066, 8)"><foreignObject width="301.46875" height="19.5"><div xmlns="http://www.w3.org/1999/xhtml" style="display: table-cell; white-space: nowrap; line-height: 1.5;"><span class="nodeLabel"><p>Phase 4: Stakeholder Engagement and Plan Review</p></span></div></foreignObject></g></g><g class="cluster" id="P3" data-look="classic"><rect style="" x="1722.0447731018066" y="18.734375" width="808.421875" height="337.03125"/><g class="cluster-label" transform="translate(2012.2244606018066, 18.734375)"><foreignObject width="228.0625" height="19.5"><div xmlns="http://www.w3.org/1999/xhtml" style="display: table-cell; white-space: nowrap; line-height: 1.5;"><span class="nodeLabel"><p>Phase 3: Key Themes and Action Items</p></span></div></foreignObject></g></g><g class="cluster" id="P2" data-look="classic"><rect style="" x="903.3416481018066" y="27.75" width="768.703125" height="403.25"/><g class="cluster-label" transform="translate(1160.5603981018066, 27.75)"><foreignObject width="254.265625" height="19.5"><div xmlns="http://www.w3.org/1999/xhtml" style="display: table-cell; white-space: nowrap; line-height: 1.5;"><span class="nodeLabel"><p>Phase 2: Data Collection and Initial Analysis</p></span></div></foreignObject></g></g><g class="cluster" id="P1" data-look="classic"><rect style="" x="8" y="178.0625" width="845.3416481018066" height="266.875"/><g class="cluster-label" transform="translate(361.6786365509033, 178.0625)"><foreignObject width="137.984375" height="19.5"><div xmlns="http://www.w3.org/1999/xhtml" style="display: table-cell; white-space: nowrap; line-height: 1.5;"><span class="nodeLabel"><p>Phase 1: Survey Design</p></span></div></foreignObject></g></g></g><g class="edgePaths"><path d="M85.045,312L89.128,311.917C93.211,311.833,101.378,311.667,108.961,311.583C116.545,311.5,123.545,311.5,127.045,311.5L130.545,311.5" id="L_A_B_0" class="edge-thickness-normal edge-pattern-solid edge-thickness-normal edge-pattern-solid flowchart-link" style=";" data-edge="true" data-et="edge" data-id="L_A_B_0" data-points="W3sieCI6ODUuMDQ0Nzc0NDU4OTIyOTIsInkiOjMxMS45OTk5OTk5OTk5OTk5NH0seyJ4IjoxMDkuNTQ0NzczMTAxODA2NjQsInkiOjMxMS41fSx7IngiOjEzNC41NDQ3NzMxMDE4MDY2NCwieSI6MzExLjV9XQ==" marker-end="url(#my-svg_flowchart-v2-pointEnd)"/><path d="M300.382,277L311.994,270.818C323.606,264.635,346.829,252.271,369.2,251.93C391.57,251.589,413.088,263.271,423.846,269.112L434.605,274.953" id="L_B_C_0" class="edge-thickness-normal edge-pattern-solid edge-thickness-normal edge-pattern-solid flowchart-link" style=";" data-edge="true" data-et="edge" data-id="L_B_C_0" data-points="W3sieCI6MzAwLjM4MjM5NTE4Mjc3NTY3LCJ5IjoyNzd9LHsieCI6MzcwLjA1MjU4NTYwMTgwNjY0LCJ5IjoyMzkuOTA2MjV9LHsieCI6NDM4LjEyMDQxOTYyODcwNDQ0LCJ5IjoyNzYuODYxODUzNDczMTAyMn1d" marker-end="url(#my-svg_flowchart-v2-pointEnd)"/><path d="M600.357,311.5L606.23,311.5C612.102,311.5,623.847,311.5,634.925,311.5C646.003,311.5,656.415,311.5,661.62,311.5L666.826,311.5" id="L_C_D_0" class="edge-thickness-normal edge-pattern-solid edge-thickness-normal edge-pattern-solid flowchart-link" style=";" data-edge="true" data-et="edge" data-id="L_C_D_0" data-points="W3sieCI6NjAwLjM1NzI3MzEwMTgwNjYsInkiOjMxMS41fSx7IngiOjYzNS41OTE2NDgxMDE4MDY2LCJ5IjozMTEuNX0seyJ4Ijo2NzAuODI2MDIzMTAxODA2NiwieSI6MzExLjV9XQ==" marker-end="url(#my-svg_flowchart-v2-pointEnd)"/><path d="M425.036,333.054L415.872,335.623C406.708,338.192,388.381,343.331,374.288,344.545C360.195,345.759,350.337,343.049,345.409,341.694L340.48,340.338" id="L_C_B_0" class="edge-thickness-normal edge-pattern-solid edge-thickness-normal edge-pattern-solid flowchart-link" style=";" data-edge="true" data-et="edge" data-id="L_C_B_0" data-points="W3sieCI6NDI1LjAzNjQwMDYyOTQ1NDYsInkiOjMzMy4wNTQxMjc1Mjc2NDc5NX0seyJ4IjozNzAuMDUyNTg1NjAxODA2NjQsInkiOjM0OC40Njg3NX0seyJ4IjozMzYuNjIyODk4MTAxODA2NjQsInkiOjMzOS4yNzgxMTA4MzgzNjg2fV0=" marker-end="url(#my-svg_flowchart-v2-pointEnd)"/><path d="M828.342,311.5L832.508,311.5C836.675,311.5,845.008,311.5,853.342,311.5C861.675,311.5,870.008,311.5,878.342,311.5C886.675,311.5,895.008,311.5,902.675,311.5C910.342,311.5,917.342,311.5,920.842,311.5L924.342,311.5" id="L_D_E_0" class="edge-thickness-normal edge-pattern-solid edge-thickness-normal edge-pattern-solid flowchart-link" style=";" data-edge="true" data-et="edge" data-id="L_D_E_0" data-points="W3sieCI6ODI4LjM0MTY0ODEwMTgwNjYsInkiOjMxMS41fSx7IngiOjg1My4zNDE2NDgxMDE4MDY2LCJ5IjozMTEuNX0seyJ4Ijo4NzguMzQxNjQ4MTAxODA2NiwieSI6MzExLjV9LHsieCI6OTAzLjM0MTY0ODEwMTgwNjYsInkiOjMxMS41fSx7IngiOjkyOC4zNDE2NDgxMDE4MDY2LCJ5IjozMTEuNX1d" marker-end="url(#my-svg_flowchart-v2-pointEnd)"/><path d="M1045.833,277L1057.793,265.333C1069.753,253.667,1093.672,230.333,1109.132,218.667C1124.592,207,1131.592,207,1135.092,207L1138.592,207" id="L_E_F_0" class="edge-thickness-normal edge-pattern-solid edge-thickness-normal edge-pattern-solid flowchart-link" style=";" data-edge="true" data-et="edge" data-id="L_E_F_0" data-points="W3sieCI6MTA0NS44MzMyNzQ4OTYwNjUsInkiOjI3N30seyJ4IjoxMTE3LjU5MTY0ODEwMTgwNjYsInkiOjIwN30seyJ4IjoxMTQyLjU5MTY0ODEwMTgwNjYsInkiOjIwN31d" marker-end="url(#my-svg_flowchart-v2-pointEnd)"/><path d="M1416.792,192.701L1425.048,191.792C1433.303,190.884,1449.815,189.067,1463.699,188.158C1477.584,187.25,1488.842,187.25,1494.471,187.25L1500.099,187.25" id="L_F_G_0" class="edge-thickness-normal edge-pattern-solid edge-thickness-normal edge-pattern-solid flowchart-link" style=";" data-edge="true" data-et="edge" data-id="L_F_G_0" data-points="W3sieCI6MTQxNi43OTIyMjA2MDU5MjQsInkiOjE5Mi43MDA1NzI1MDQxMTczM30seyJ4IjoxNDY2LjMyNjAyMzEwMTgwNjYsInkiOjE4Ny4yNX0seyJ4IjoxNTA0LjA5OTQ2MDYwMTgwNjYsInkiOjE4Ny4yNX1d" marker-end="url(#my-svg_flowchart-v2-pointEnd)"/><path d="M1392.795,245.297L1405.05,249.727C1417.305,254.156,1441.816,263.016,1464.627,276.207C1487.438,289.398,1508.549,306.922,1519.105,315.684L1529.661,324.445" id="L_F_H_0" class="edge-thickness-normal edge-pattern-solid edge-thickness-normal edge-pattern-solid flowchart-link" style=";" data-edge="true" data-et="edge" data-id="L_F_H_0" data-points="W3sieCI6MTM5Mi43OTQ2OTgxNjg5NDY1LCJ5IjoyNDUuMjk2OTQ5OTMyODYwMTR9LHsieCI6MTQ2Ni4zMjYwMjMxMDE4MDY2LCJ5IjoyNzEuODc1fSx7IngiOjE1MzIuNzM4Mzg1ODExMDExOCwieSI6MzI3fV0=" marker-end="url(#my-svg_flowchart-v2-pointEnd)"/><path d="M1501.56,378.174L1495.688,379.52C1489.816,380.866,1478.071,383.558,1442.284,384.904C1406.498,386.25,1346.67,386.25,1288.547,386.25C1230.425,386.25,1174.008,386.25,1136.733,379.923C1099.458,373.596,1081.323,360.943,1072.256,354.616L1063.189,348.289" id="L_H_E_0" class="edge-thickness-normal edge-pattern-solid edge-thickness-normal edge-pattern-solid flowchart-link" style=";" data-edge="true" data-et="edge" data-id="L_H_E_0" data-points="W3sieCI6MTUwMS41NjAzOTgxMDE4MDY2LCJ5IjozNzguMTczNzAzMDYwNTZ9LHsieCI6MTQ2Ni4zMjYwMjMxMDE4MDY2LCJ5IjozODYuMjV9LHsieCI6MTI4Ni44NDE2NDgxMDE4MDY2LCJ5IjozODYuMjV9LHsieCI6MTExNy41OTE2NDgxMDE4MDY2LCJ5IjozODYuMjV9LHsieCI6MTA1OS45MDg5NTU3OTQxMTQzLCJ5IjozNDZ9XQ==" marker-end="url(#my-svg_flowchart-v2-pointEnd)"/><path d="M1644.506,187.25L1649.096,187.25C1653.685,187.25,1662.865,187.25,1671.622,187.25C1680.378,187.25,1688.711,187.25,1697.045,187.25C1705.378,187.25,1713.711,187.25,1721.378,187.25C1729.045,187.25,1736.045,187.25,1739.545,187.25L1743.045,187.25" id="L_G_I_0" class="edge-thickness-normal edge-pattern-solid edge-thickness-normal edge-pattern-solid flowchart-link" style=";" data-edge="true" data-et="edge" data-id="L_G_I_0" data-points="W3sieCI6MTY0NC41MDU3MTA2MDE4MDY2LCJ5IjoxODcuMjV9LHsieCI6MTY3Mi4wNDQ3NzMxMDE4MDY2LCJ5IjoxODcuMjV9LHsieCI6MTY5Ny4wNDQ3NzMxMDE4MDY2LCJ5IjoxODcuMjV9LHsieCI6MTcyMi4wNDQ3NzMxMDE4MDY2LCJ5IjoxODcuMjV9LHsieCI6MTc0Ny4wNDQ3NzMxMDE4MDY2LCJ5IjoxODcuMjV9XQ==" marker-end="url(#my-svg_flowchart-v2-pointEnd)"/><path d="M1889.229,152.75L1899.929,146.124C1910.629,139.497,1932.028,126.245,1954.541,124.873C1977.054,123.501,2000.681,134.011,2012.494,139.265L2024.307,144.52" id="L_I_J_0" class="edge-thickness-normal edge-pattern-solid edge-thickness-normal edge-pattern-solid flowchart-link" style=";" data-edge="true" data-et="edge" data-id="L_I_J_0" data-points="W3sieCI6MTg4OS4yMjk0ODkyMDUxNzMyLCJ5IjoxNTIuNzV9LHsieCI6MTk1My40Mjc1ODU2MDE4MDY2LCJ5IjoxMTIuOTkyMTg3NX0seyJ4IjoyMDI3Ljk2MTk1NzE2MDM5OTQsInkiOjE0Ni4xNDUzMTU5NDE0MDd9XQ==" marker-end="url(#my-svg_flowchart-v2-pointEnd)"/><path d="M2253.889,187.25L2259.761,187.25C2265.633,187.25,2277.378,187.25,2288.456,187.25C2299.534,187.25,2309.946,187.25,2315.152,187.25L2320.357,187.25" id="L_J_K_0" class="edge-thickness-normal edge-pattern-solid edge-thickness-normal edge-pattern-solid flowchart-link" style=";" data-edge="true" data-et="edge" data-id="L_J_K_0" data-points="W3sieCI6MjI1My44ODg1MjMxMDE4MDY2LCJ5IjoxODcuMjV9LHsieCI6MjI4OS4xMjI4OTgxMDE4MDY2LCJ5IjoxODcuMjV9LHsieCI6MjMyNC4zNTcyNzMxMDE4MDY2LCJ5IjoxODcuMjV9XQ==" marker-end="url(#my-svg_flowchart-v2-pointEnd)"/><path d="M2026.056,226.448L2013.951,231.479C2001.846,236.51,1977.637,246.571,1956.062,246.122C1934.487,245.673,1915.546,234.713,1906.076,229.233L1896.606,223.753" id="L_J_I_0" class="edge-thickness-normal edge-pattern-solid edge-thickness-normal edge-pattern-solid flowchart-link" style=";" data-edge="true" data-et="edge" data-id="L_J_I_0" data-points="W3sieCI6MjAyNi4wNTU2OTUxMDU5Mzg5LCJ5IjoyMjYuNDQ4NDIyMDA0MTMyMjN9LHsieCI6MTk1My40Mjc1ODU2MDE4MDY2LCJ5IjoyNTYuNjMyODEyNX0seyJ4IjoxODkzLjE0MzY3NTQyODQwMjcsInkiOjIyMS43NX1d" marker-end="url(#my-svg_flowchart-v2-pointEnd)"/><path d="M2505.467,187.25L2509.633,187.25C2513.8,187.25,2522.133,187.25,2530.467,187.25C2538.8,187.25,2547.133,187.25,2555.467,187.25C2563.8,187.25,2572.133,187.25,2579.8,187.25C2587.467,187.25,2594.467,187.25,2597.967,187.25L2601.467,187.25" id="L_K_L_0" class="edge-thickness-normal edge-pattern-solid edge-thickness-normal edge-pattern-solid flowchart-link" style=";" data-edge="true" data-et="edge" data-id="L_K_L_0" data-points="W3sieCI6MjUwNS40NjY2NDgxMDE4MDY2LCJ5IjoxODcuMjV9LHsieCI6MjUzMC40NjY2NDgxMDE4MDY2LCJ5IjoxODcuMjV9LHsieCI6MjU1NS40NjY2NDgxMDE4MDY2LCJ5IjoxODcuMjV9LHsieCI6MjU4MC40NjY2NDgxMDE4MDY2LCJ5IjoxODcuMjV9LHsieCI6MjYwNS40NjY2NDgxMDE4MDY2LCJ5IjoxODcuMjV9XQ==" marker-end="url(#my-svg_flowchart-v2-pointEnd)"/><path d="M2793.546,152.75L2808.144,145.229C2822.741,137.708,2851.936,122.667,2878.936,120.704C2905.937,118.742,2930.743,129.858,2943.146,135.417L2955.549,140.975" id="L_L_M_0" class="edge-thickness-normal edge-pattern-solid edge-thickness-normal edge-pattern-solid flowchart-link" style=";" data-edge="true" data-et="edge" data-id="L_L_M_0" data-points="W3sieCI6Mjc5My41NDYwNjA4NzY1MzIsInkiOjE1Mi43NX0seyJ4IjoyODgxLjEzMDcxMDYwMTgwNjYsInkiOjEwNy42MjV9LHsieCI6Mjk1OS4xOTk3MTc5NzQyODMsInkiOjE0Mi42MTA2ODAxMjc1MjM5Mn1d" marker-end="url(#my-svg_flowchart-v2-pointEnd)"/><path d="M3203.06,187.25L3208.933,187.25C3214.805,187.25,3226.55,187.25,3237.628,187.25C3248.706,187.25,3259.118,187.25,3264.323,187.25L3269.529,187.25" id="L_M_N_0" class="edge-thickness-normal edge-pattern-solid edge-thickness-normal edge-pattern-solid flowchart-link" style=";" data-edge="true" data-et="edge" data-id="L_M_N_0" data-points="W3sieCI6MzIwMy4wNjAzOTgxMDE4MDY2LCJ5IjoxODcuMjV9LHsieCI6MzIzOC4yOTQ3NzMxMDE4MDY2LCJ5IjoxODcuMjV9LHsieCI6MzI3My41MjkxNDgxMDE4MDY2LCJ5IjoxODcuMjV9XQ==" marker-end="url(#my-svg_flowchart-v2-pointEnd)"/><path d="M2957.276,229.966L2944.585,235.305C2931.894,240.644,2906.512,251.322,2880.552,250.243C2854.592,249.164,2828.053,236.328,2814.784,229.91L2801.514,223.492" id="L_M_L_0" class="edge-thickness-normal edge-pattern-solid edge-thickness-normal edge-pattern-solid flowchart-link" style=";" data-edge="true" data-et="edge" data-id="L_M_L_0" data-points="W3sieCI6Mjk1Ny4yNzYwMDU3ODk1OTEsInkiOjIyOS45NjU2MDc2ODc3ODQzNH0seyJ4IjoyODgxLjEzMDcxMDYwMTgwNjYsInkiOjI2Mn0seyJ4IjoyNzk3LjkxMzE2MjUyNDg4NCwieSI6MjIxLjc1fV0=" marker-end="url(#my-svg_flowchart-v2-pointEnd)"/><path d="M3445.014,187.25L3449.18,187.25C3453.347,187.25,3461.68,187.25,3470.014,187.25C3478.347,187.25,3486.68,187.25,3495.014,187.25C3503.347,187.25,3511.68,187.25,3519.347,187.25C3527.014,187.25,3534.014,187.25,3537.514,187.25L3541.014,187.25" id="L_N_O_0" class="edge-thickness-normal edge-pattern-solid edge-thickness-normal edge-pattern-solid flowchart-link" style=";" data-edge="true" data-et="edge" data-id="L_N_O_0" data-points="W3sieCI6MzQ0NS4wMTM1MjMxMDE4MDY2LCJ5IjoxODcuMjV9LHsieCI6MzQ3MC4wMTM1MjMxMDE4MDY2LCJ5IjoxODcuMjV9LHsieCI6MzQ5NS4wMTM1MjMxMDE4MDY2LCJ5IjoxODcuMjV9LHsieCI6MzUyMC4wMTM1MjMxMDE4MDY2LCJ5IjoxODcuMjV9LHsieCI6MzU0NS4wMTM1MjMxMDE4MDY2LCJ5IjoxODcuMjV9XQ==" marker-end="url(#my-svg_flowchart-v2-pointEnd)"/><path d="M3695.01,152.75L3707.098,145.229C3719.186,137.708,3743.361,122.667,3767.852,120.704C3792.343,118.742,3817.149,129.858,3829.553,135.417L3841.956,140.975" id="L_O_P_0" class="edge-thickness-normal edge-pattern-solid edge-thickness-normal edge-pattern-solid flowchart-link" style=";" data-edge="true" data-et="edge" data-id="L_O_P_0" data-points="W3sieCI6MzY5NS4wMTAyMTE2ODEwODQ1LCJ5IjoxNTIuNzV9LHsieCI6Mzc2Ny41MzY5NjA2MDE4MDY2LCJ5IjoxMDcuNjI1fSx7IngiOjM4NDUuNjA1OTY3OTc0MjgzLCJ5IjoxNDIuNjEwNjgwMTI3NTIzOTJ9XQ==" marker-end="url(#my-svg_flowchart-v2-pointEnd)"/><path d="M4089.467,187.25L4095.339,187.25C4101.211,187.25,4112.956,187.25,4124.034,187.25C4135.112,187.25,4145.524,187.25,4150.73,187.25L4155.935,187.25" id="L_P_Q_0" class="edge-thickness-normal edge-pattern-solid edge-thickness-normal edge-pattern-solid flowchart-link" style=";" data-edge="true" data-et="edge" data-id="L_P_Q_0" data-points="W3sieCI6NDA4OS40NjY2NDgxMDE4MDY2LCJ5IjoxODcuMjV9LHsieCI6NDEyNC43MDEwMjMxMDE4MDcsInkiOjE4Ny4yNX0seyJ4Ijo0MTU5LjkzNTM5ODEwMTgwNywieSI6MTg3LjI1fV0=" marker-end="url(#my-svg_flowchart-v2-pointEnd)"/><path d="M3812.11,198.393L3804.681,199.015C3797.252,199.637,3782.395,200.881,3770.056,200.932C3757.718,200.984,3747.899,199.842,3742.99,199.272L3738.081,198.701" id="L_P_O_0" class="edge-thickness-normal edge-pattern-solid edge-thickness-normal edge-pattern-solid flowchart-link" style=";" data-edge="true" data-et="edge" data-id="L_P_O_0" data-points="W3sieCI6MzgxMi4xMTAwNzMyNjUxMTMsInkiOjE5OC4zOTM0MjUxNjMzMDU5fSx7IngiOjM3NjcuNTM2OTYwNjAxODA2NiwieSI6MjAyLjEyNX0seyJ4IjozNzM0LjEwNzI3MzEwMTgwNjYsInkiOjE5OC4yMzkzOTMxOTk0MzgzOH1d" marker-end="url(#my-svg_flowchart-v2-pointEnd)"/><path d="M4319.139,187.25L4323.305,187.25C4327.472,187.25,4335.805,187.25,4351.169,193.123C4366.533,198.995,4388.928,210.741,4400.125,216.613L4411.323,222.486" id="L_Q_R_0" class="edge-thickness-normal edge-pattern-solid edge-thickness-normal edge-pattern-solid flowchart-link" style=";" data-edge="true" data-et="edge" data-id="L_Q_R_0" data-points="W3sieCI6NDMxOS4xMzg1MjMxMDE4MDcsInkiOjE4Ny4yNX0seyJ4Ijo0MzQ0LjEzODUyMzEwMTgwNywieSI6MTg3LjI1fSx7IngiOjQ0MTQuODY1MTgxMDg0MTI4LCJ5IjoyMjQuMzQzNzV9XQ==" marker-end="url(#my-svg_flowchart-v2-pointEnd)"/><path d="M4437.024,293.344L4421.543,305.587C4406.062,317.831,4375.1,342.318,4342.186,354.561C4309.271,366.805,4274.404,366.805,4237.831,366.805C4201.258,366.805,4162.98,366.805,4113.926,366.805C4064.873,366.805,4005.045,366.805,3945.517,366.805C3885.99,366.805,3826.764,366.805,3780.306,343.172C3733.849,319.539,3700.16,272.273,3683.316,248.64L3666.472,225.007" id="L_R_O_0" class="edge-thickness-normal edge-pattern-solid edge-thickness-normal edge-pattern-solid flowchart-link" style=";" data-edge="true" data-et="edge" data-id="L_R_O_0" data-points="W3sieCI6NDQzNy4wMjM4OTU0ODMxMjksInkiOjI5My4zNDM3NX0seyJ4Ijo0MzQ0LjEzODUyMzEwMTgwNywieSI6MzY2LjgwNDY4NzV9LHsieCI6NDIzOS41MzY5NjA2MDE4MDcsInkiOjM2Ni44MDQ2ODc1fSx7IngiOjQxMjQuNzAxMDIzMTAxODA3LCJ5IjozNjYuODA0Njg3NX0seyJ4IjozOTQ1LjIxNjY0ODEwMTgwNjYsInkiOjM2Ni44MDQ2ODc1fSx7IngiOjM3NjcuNTM2OTYwNjAxODA2NiwieSI6MzY2LjgwNDY4NzV9LHsieCI6MzY2NC4xNTAwNzMwNzg5NjM1LCJ5IjoyMjEuNzV9XQ==" marker-end="url(#my-svg_flowchart-v2-pointEnd)"/><path d="M4592.154,258.844L4597.726,258.844C4603.297,258.844,4614.441,258.844,4624.917,258.844C4635.394,258.844,4645.204,258.844,4650.109,258.844L4655.014,258.844" id="L_R_S_0" class="edge-thickness-normal edge-pattern-solid edge-thickness-normal edge-pattern-solid flowchart-link" style=";" data-edge="true" data-et="edge" data-id="L_R_S_0" data-points="W3sieCI6NDU5Mi4xNTQxNDgxMDE4MDcsInkiOjI1OC44NDM3NX0seyJ4Ijo0NjI1LjU4MzgzNTYwMTgwNywieSI6MjU4Ljg0Mzc1fSx7IngiOjQ2NTkuMDEzNTIzMTAxODA3LCJ5IjoyNTguODQzNzV9XQ==" marker-end="url(#my-svg_flowchart-v2-pointEnd)"/><path d="M4837.482,258.844L4841.649,258.844C4845.816,258.844,4854.149,258.844,4862.482,258.844C4870.816,258.844,4879.149,258.844,4887.482,258.844C4895.816,258.844,4904.149,258.844,4911.816,258.844C4919.482,258.844,4926.482,258.844,4929.982,258.844L4933.482,258.844" id="L_S_T_0" class="edge-thickness-normal edge-pattern-solid edge-thickness-normal edge-pattern-solid flowchart-link" style=";" data-edge="true" data-et="edge" data-id="L_S_T_0" data-points="W3sieCI6NDgzNy40ODIyNzMxMDE4MDcsInkiOjI1OC44NDM3NX0seyJ4Ijo0ODYyLjQ4MjI3MzEwMTgwNywieSI6MjU4Ljg0Mzc1fSx7IngiOjQ4ODcuNDgyMjczMTAxODA3LCJ5IjoyNTguODQzNzV9LHsieCI6NDkxMi40ODIyNzMxMDE4MDcsInkiOjI1OC44NDM3NX0seyJ4Ijo0OTM3LjQ4MjI3MzEwMTgwNywieSI6MjU4Ljg0Mzc1fV0=" marker-end="url(#my-svg_flowchart-v2-pointEnd)"/><path d="M5153.35,224.344L5160.076,222.122C5166.803,219.901,5180.256,215.458,5196.628,216.297C5213,217.136,5232.292,223.256,5241.938,226.316L5251.584,229.376" id="L_T_U_0" class="edge-thickness-normal edge-pattern-solid edge-thickness-normal edge-pattern-solid flowchart-link" style=";" data-edge="true" data-et="edge" data-id="L_T_U_0" data-points="W3sieCI6NTE1My4zNTAwMDE2ODMxNTIsInkiOjIyNC4zNDM3NX0seyJ4Ijo1MTkzLjcwODgzNTYwMTgwNywieSI6MjExLjAxNTYyNX0seyJ4Ijo1MjU1LjM5NjIzNTA5ODczOCwieSI6MjMwLjU4NjAzODAwMzA2ODU4fV0=" marker-end="url(#my-svg_flowchart-v2-pointEnd)"/><path d="M5461.795,258.844L5467.667,258.844C5473.54,258.844,5485.284,258.844,5496.362,258.844C5507.441,258.844,5517.852,258.844,5523.058,258.844L5528.264,258.844" id="L_U_V_0" class="edge-thickness-normal edge-pattern-solid edge-thickness-normal edge-pattern-solid flowchart-link" style=";" data-edge="true" data-et="edge" data-id="L_U_V_0" data-points="W3sieCI6NTQ2MS43OTQ3NzMxMDE4MDcsInkiOjI1OC44NDM3NX0seyJ4Ijo1NDk3LjAyOTE0ODEwMTgwNywieSI6MjU4Ljg0Mzc1fSx7IngiOjU1MzIuMjYzNTIzMTAxODA3LCJ5IjoyNTguODQzNzV9XQ==" marker-end="url(#my-svg_flowchart-v2-pointEnd)"/><path d="M5267.69,299.395L5255.359,305.907C5243.029,312.419,5218.369,325.444,5192.944,324.757C5167.518,324.069,5141.328,309.67,5128.232,302.471L5115.137,295.271" id="L_U_T_0" class="edge-thickness-normal edge-pattern-solid edge-thickness-normal edge-pattern-solid flowchart-link" style=";" data-edge="true" data-et="edge" data-id="L_U_T_0" data-points="W3sieCI6NTI2Ny42ODk1MTY2OTI2MzcsInkiOjI5OS4zOTQ3NDM1OTA4MzA1fSx7IngiOjUxOTMuNzA4ODM1NjAxODA3LCJ5IjozMzguNDY4NzV9LHsieCI6NTExMS42MzE5ODYxMTIwMTEsInkiOjI5My4zNDM3NX1d" marker-end="url(#my-svg_flowchart-v2-pointEnd)"/><path d="M5685.217,258.844L5689.383,258.844C5693.55,258.844,5701.883,258.844,5709.55,258.844C5717.217,258.844,5724.217,258.844,5727.717,258.844L5731.217,258.844" id="L_V_W_0" class="edge-thickness-normal edge-pattern-solid edge-thickness-normal edge-pattern-solid flowchart-link" style=";" data-edge="true" data-et="edge" data-id="L_V_W_0" data-points="W3sieCI6NTY4NS4yMTY2NDgxMDE4MDcsInkiOjI1OC44NDM3NX0seyJ4Ijo1NzEwLjIxNjY0ODEwMTgwNywieSI6MjU4Ljg0Mzc1fSx7IngiOjU3MzUuMjE2NjQ4MTAxODA3LCJ5IjoyNTguODQzNzV9XQ==" marker-end="url(#my-svg_flowchart-v2-pointEnd)"/></g><g class="edgeLabels"><g class="edgeLabel"><g class="label" data-id="L_A_B_0" transform="translate(0, 0)"><foreignObject width="0" height="0"><div xmlns="http://www.w3.org/1999/xhtml" class="labelBkg" style="display: table-cell; white-space: nowrap; line-height: 1.5; text-align: center;"><span class="edgeLabel"></span></div></foreignObject></g></g><g class="edgeLabel"><g class="label" data-id="L_B_C_0" transform="translate(0, 0)"><foreignObject width="0" height="0"><div xmlns="http://www.w3.org/1999/xhtml" class="labelBkg" style="display: table-cell; white-space: nowrap; line-height: 1.5; text-align: center;"><span class="edgeLabel"></span></div></foreignObject></g></g><g class="edgeLabel" transform="translate(635.5916481018066, 311.5)"><g class="label" data-id="L_C_D_0" transform="translate(-10.234375, -9.75)"><foreignObject width="20.46875" height="19.5"><div xmlns="http://www.w3.org/1999/xhtml" class="labelBkg" style="display: table-cell; white-space: nowrap; line-height: 1.5; text-align: center;"><span class="edgeLabel"><p>Yes</p></span></div></foreignObject></g></g><g class="edgeLabel" transform="translate(380.853, 345.44087)"><g class="label" data-id="L_C_B_0" transform="translate(-8.4296875, -9.75)"><foreignObject width="16.859375" height="19.5"><div xmlns="http://www.w3.org/1999/xhtml" class="labelBkg" style="display: table-cell; white-space: nowrap; line-height: 1.5; text-align: center;"><span class="edgeLabel"><p>No</p></span></div></foreignObject></g></g><g class="edgeLabel"><g class="label" data-id="L_D_E_0" transform="translate(0, 0)"><foreignObject width="0" height="0"><div xmlns="http://www.w3.org/1999/xhtml" class="labelBkg" style="display: table-cell; white-space: nowrap; line-height: 1.5; text-align: center;"><span class="edgeLabel"></span></div></foreignObject></g></g><g class="edgeLabel"><g class="label" data-id="L_E_F_0" transform="translate(0, 0)"><foreignObject width="0" height="0"><div xmlns="http://www.w3.org/1999/xhtml" class="labelBkg" style="display: table-cell; white-space: nowrap; line-height: 1.5; text-align: center;"><span class="edgeLabel"></span></div></foreignObject></g></g><g class="edgeLabel" transform="translate(1466.3260231018066, 187.25)"><g class="label" data-id="L_F_G_0" transform="translate(-10.234375, -9.75)"><foreignObject width="20.46875" height="19.5"><div xmlns="http://www.w3.org/1999/xhtml" class="labelBkg" style="display: table-cell; white-space: nowrap; line-height: 1.5; text-align: center;"><span class="edgeLabel"><p>Yes</p></span></div></foreignObject></g></g><g class="edgeLabel" transform="translate(1469.451, 274.46886)"><g class="label" data-id="L_F_H_0" transform="translate(-8.4296875, -9.75)"><foreignObject width="16.859375" height="19.5"><div xmlns="http://www.w3.org/1999/xhtml" class="labelBkg" style="display: table-cell; white-space: nowrap; line-height: 1.5; text-align: center;"><span class="edgeLabel"><p>No</p></span></div></foreignObject></g></g><g class="edgeLabel"><g class="label" data-id="L_H_E_0" transform="translate(0, 0)"><foreignObject width="0" height="0"><div xmlns="http://www.w3.org/1999/xhtml" class="labelBkg" style="display: table-cell; white-space: nowrap; line-height: 1.5; text-align: center;"><span class="edgeLabel"></span></div></foreignObject></g></g><g class="edgeLabel"><g class="label" data-id="L_G_I_0" transform="translate(0, 0)"><foreignObject width="0" height="0"><div xmlns="http://www.w3.org/1999/xhtml" class="labelBkg" style="display: table-cell; white-space: nowrap; line-height: 1.5; text-align: center;"><span class="edgeLabel"></span></div></foreignObject></g></g><g class="edgeLabel"><g class="label" data-id="L_I_J_0" transform="translate(0, 0)"><foreignObject width="0" height="0"><div xmlns="http://www.w3.org/1999/xhtml" class="labelBkg" style="display: table-cell; white-space: nowrap; line-height: 1.5; text-align: center;"><span class="edgeLabel"></span></div></foreignObject></g></g><g class="edgeLabel" transform="translate(2289.1228981018066, 187.25)"><g class="label" data-id="L_J_K_0" transform="translate(-10.234375, -9.75)"><foreignObject width="20.46875" height="19.5"><div xmlns="http://www.w3.org/1999/xhtml" class="labelBkg" style="display: table-cell; white-space: nowrap; line-height: 1.5; text-align: center;"><span class="edgeLabel"><p>Yes</p></span></div></foreignObject></g></g><g class="edgeLabel" transform="translate(1957.58388, 254.90545)"><g class="label" data-id="L_J_I_0" transform="translate(-8.4296875, -9.75)"><foreignObject width="16.859375" height="19.5"><div xmlns="http://www.w3.org/1999/xhtml" class="labelBkg" style="display: table-cell; white-space: nowrap; line-height: 1.5; text-align: center;"><span class="edgeLabel"><p>No</p></span></div></foreignObject></g></g><g class="edgeLabel"><g class="label" data-id="L_K_L_0" transform="translate(0, 0)"><foreignObject width="0" height="0"><div xmlns="http://www.w3.org/1999/xhtml" class="labelBkg" style="display: table-cell; white-space: nowrap; line-height: 1.5; text-align: center;"><span class="edgeLabel"></span></div></foreignObject></g></g><g class="edgeLabel"><g class="label" data-id="L_L_M_0" transform="translate(0, 0)"><foreignObject width="0" height="0"><div xmlns="http://www.w3.org/1999/xhtml" class="labelBkg" style="display: table-cell; white-space: nowrap; line-height: 1.5; text-align: center;"><span class="edgeLabel"></span></div></foreignObject></g></g><g class="edgeLabel" transform="translate(3238.2947731018066, 187.25)"><g class="label" data-id="L_M_N_0" transform="translate(-10.234375, -9.75)"><foreignObject width="20.46875" height="19.5"><div xmlns="http://www.w3.org/1999/xhtml" class="labelBkg" style="display: table-cell; white-space: nowrap; line-height: 1.5; text-align: center;"><span class="edgeLabel"><p>Yes</p></span></div></foreignObject></g></g><g class="edgeLabel" transform="translate(2881.1307106018066, 262)"><g class="label" data-id="L_M_L_0" transform="translate(-8.4296875, -9.75)"><foreignObject width="16.859375" height="19.5"><div xmlns="http://www.w3.org/1999/xhtml" class="labelBkg" style="display: table-cell; white-space: nowrap; line-height: 1.5; text-align: center;"><span class="edgeLabel"><p>No</p></span></div></foreignObject></g></g><g class="edgeLabel"><g class="label" data-id="L_N_O_0" transform="translate(0, 0)"><foreignObject width="0" height="0"><div xmlns="http://www.w3.org/1999/xhtml" class="labelBkg" style="display: table-cell; white-space: nowrap; line-height: 1.5; text-align: center;"><span class="edgeLabel"></span></div></foreignObject></g></g><g class="edgeLabel"><g class="label" data-id="L_O_P_0" transform="translate(0, 0)"><foreignObject width="0" height="0"><div xmlns="http://www.w3.org/1999/xhtml" class="labelBkg" style="display: table-cell; white-space: nowrap; line-height: 1.5; text-align: center;"><span class="edgeLabel"></span></div></foreignObject></g></g><g class="edgeLabel" transform="translate(4124.701023101807, 187.25)"><g class="label" data-id="L_P_Q_0" transform="translate(-10.234375, -9.75)"><foreignObject width="20.46875" height="19.5"><div xmlns="http://www.w3.org/1999/xhtml" class="labelBkg" style="display: table-cell; white-space: nowrap; line-height: 1.5; text-align: center;"><span class="edgeLabel"><p>Yes</p></span></div></foreignObject></g></g><g class="edgeLabel" transform="translate(3773.0548, 201.66306)"><g class="label" data-id="L_P_O_0" transform="translate(-8.4296875, -9.75)"><foreignObject width="16.859375" height="19.5"><div xmlns="http://www.w3.org/1999/xhtml" class="labelBkg" style="display: table-cell; white-space: nowrap; line-height: 1.5; text-align: center;"><span class="edgeLabel"><p>No</p></span></div></foreignObject></g></g><g class="edgeLabel"><g class="label" data-id="L_Q_R_0" transform="translate(0, 0)"><foreignObject width="0" height="0"><div xmlns="http://www.w3.org/1999/xhtml" class="labelBkg" style="display: table-cell; white-space: nowrap; line-height: 1.5; text-align: center;"><span class="edgeLabel"></span></div></foreignObject></g></g><g class="edgeLabel" transform="translate(4124.701023101807, 366.8046875)"><g class="label" data-id="L_R_O_0" transform="translate(-10.234375, -9.75)"><foreignObject width="20.46875" height="19.5"><div xmlns="http://www.w3.org/1999/xhtml" class="labelBkg" style="display: table-cell; white-space: nowrap; line-height: 1.5; text-align: center;"><span class="edgeLabel"><p>Yes</p></span></div></foreignObject></g></g><g class="edgeLabel" transform="translate(4625.583835601807, 258.84375)"><g class="label" data-id="L_R_S_0" transform="translate(-8.4296875, -9.75)"><foreignObject width="16.859375" height="19.5"><div xmlns="http://www.w3.org/1999/xhtml" class="labelBkg" style="display: table-cell; white-space: nowrap; line-height: 1.5; text-align: center;"><span class="edgeLabel"><p>No</p></span></div></foreignObject></g></g><g class="edgeLabel"><g class="label" data-id="L_S_T_0" transform="translate(0, 0)"><foreignObject width="0" height="0"><div xmlns="http://www.w3.org/1999/xhtml" class="labelBkg" style="display: table-cell; white-space: nowrap; line-height: 1.5; text-align: center;"><span class="edgeLabel"></span></div></foreignObject></g></g><g class="edgeLabel"><g class="label" data-id="L_T_U_0" transform="translate(0, 0)"><foreignObject width="0" height="0"><div xmlns="http://www.w3.org/1999/xhtml" class="labelBkg" style="display: table-cell; white-space: nowrap; line-height: 1.5; text-align: center;"><span class="edgeLabel"></span></div></foreignObject></g></g><g class="edgeLabel" transform="translate(5497.029148101807, 258.84375)"><g class="label" data-id="L_U_V_0" transform="translate(-10.234375, -9.75)"><foreignObject width="20.46875" height="19.5"><div xmlns="http://www.w3.org/1999/xhtml" class="labelBkg" style="display: table-cell; white-space: nowrap; line-height: 1.5; text-align: center;"><span class="edgeLabel"><p>Yes</p></span></div></foreignObject></g></g><g class="edgeLabel" transform="translate(5189.3282, 336.06032)"><g class="label" data-id="L_U_T_0" transform="translate(-8.4296875, -9.75)"><foreignObject width="16.859375" height="19.5"><div xmlns="http://www.w3.org/1999/xhtml" class="labelBkg" style="display: table-cell; white-space: nowrap; line-height: 1.5; text-align: center;"><span class="edgeLabel"><p>No</p></span></div></foreignObject></g></g><g class="edgeLabel"><g class="label" data-id="L_V_W_0" transform="translate(0, 0)"><foreignObject width="0" height="0"><div xmlns="http://www.w3.org/1999/xhtml" class="labelBkg" style="display: table-cell; white-space: nowrap; line-height: 1.5; text-align: center;"><span class="edgeLabel"></span></div></foreignObject></g></g></g><g class="nodes"><g class="node default" id="flowchart-A-0" transform="translate(58.77238655090332, 311.5)"><g class="basic label-container outer-path"><path d="M-8.53125 -17.25 C-1.7063366289879376 -17.25, 5.118576742024125 -17.25, 8.53125 -17.25 C8.53125 -17.25, 8.531249999999998 -17.25, 8.531249999999998 -17.25 C8.865272883069856 -17.23928853627605, 9.199295766139715 -17.2285770725521, 9.636461294667296 -17.2145580249433 C9.881417998209104 -17.190927346356162, 10.126374701750912 -17.167296667769023, 10.737131039057726 -17.108377738450997 C11.117990526603931 -17.046803330113967, 11.498850014150138 -16.985228921776933, 11.828736345098669 -16.93189545809588 C12.072566656107846 -16.876242780749514, 12.316396967117024 -16.82059010340315, 12.906791572438998 -16.685836387423258 C13.127262419549485 -16.620401797275957, 13.347733266659972 -16.55496720712866, 13.966866760907457 -16.371211635934035 C14.345153455948271 -16.23199863531514, 14.723440150989083 -16.092785634696245, 15.004605834169203 -15.989314064218876 C15.266785915700948 -15.873254719420563, 15.528965997232694 -15.75719537462225, 16.015744499777878 -15.54171297131673 C16.38904948274203 -15.346960000817583, 16.76235446570619 -15.152207030318438, 16.996127772067922 -15.030247646128469 C17.332524119660327 -14.826322203333584, 17.668920467252732 -14.622396760538699, 17.94172704588196 -14.457019809384253 C18.176065564969406 -14.293555402819845, 18.41040408405685 -14.130090996255438, 18.848656650973474 -13.824384977222252 C19.088180574904428 -13.633371021886623, 19.327704498835384 -13.442357066550992, 19.713189819059345 -13.13494278186757 C19.985009760023008 -12.888083103445902, 20.25682970098667 -12.641223425024236, 20.53177399791014 -12.391526289185801 C20.810267430047574 -12.103958955767897, 21.08876086218501 -11.816391622349991, 21.301045449549193 -11.597190357007719 C21.556163438183408 -11.297514250933178, 21.811281426817622 -10.997838144858635, 22.017843072573513 -10.755199082063154 C22.265395032102592 -10.423502008741645, 22.512946991631676 -10.091804935420136, 22.679221391797483 -9.86901238710743 C22.901244127359224 -9.527925843832312, 23.123266862920964 -9.186839300557192, 23.28246266184222 -8.94227180335656 C23.482905362514796 -8.586365491288028, 23.68334806318737 -8.230459179219498, 23.825088034934254 -7.978785506654408 C23.992799158685063 -7.63052976974266, 24.160510282435872 -7.2822740328309115, 24.30486774702276 -6.982512668861298 C24.412131402631044 -6.717569365707136, 24.51939505823933 -6.452626062552974, 24.719830280358362 -5.957547188767565 C24.850584771901143 -5.563735493139775, 24.981339263443925 -5.169923797511985, 25.068270464882396 -4.908100869385314 C25.157311267257477 -4.56854969940127, 25.246352069632557 -4.228998529417225, 25.34875648513646 -3.838486110746425 C25.39411940892382 -3.6055570845556613, 25.439482332711183 -3.3726280583648975, 25.560135763899265 -2.753098189325798 C25.608858779385187 -2.375212102664638, 25.65758179487111 -1.9973260160034778, 25.70153969837367 -1.6563971969075135 C25.72322362614884 -1.3186525188577374, 25.744907553924016 -0.9809078408079615, 25.772387229461867 -0.5528897131110516 C25.772387229461867 -0.16019667606007948, 25.772387229461867 0.23249636099089266, 25.772387229461867 0.5528897131110474 C25.75129891402537 0.8813572482163001, 25.730210598588876 1.2098247833215527, 25.70153969837367 1.6563971969075018 C25.66291873645564 1.9559337509721693, 25.624297774537613 2.255470305036837, 25.560135763899265 2.753098189325786 C25.480446647702905 3.162284958693432, 25.400757531506542 3.571471728061077, 25.34875648513646 3.8384861107464214 C25.284679324729048 4.082840094596876, 25.220602164321633 4.327194078447331, 25.068270464882396 4.908100869385303 C24.94016801535964 5.293925036994305, 24.81206556583688 5.679749204603306, 24.71983028035837 5.9575471887675535 C24.5760383103173 6.312716134797604, 24.432246340276237 6.667885080827656, 24.304867747022765 6.982512668861292 C24.121701391580405 7.362861525069526, 23.938535036138045 7.74321038127776, 23.825088034934254 7.978785506654404 C23.674552694563765 8.246076246838351, 23.524017354193276 8.5133669870223, 23.282462661842224 8.942271803356554 C23.1553685533955 9.137522483477422, 23.02827444494878 9.332773163598292, 22.67922139179749 9.869012387107421 C22.46952545878817 10.149985833647415, 22.259829525778848 10.430959280187407, 22.017843072573516 10.75519908206315 C21.855306884309297 10.946123337369416, 21.692770696045077 11.137047592675682, 21.3010454495492 11.597190357007708 C21.110499094734266 11.793945112500797, 20.919952739919335 11.990699867993886, 20.531773997910143 12.391526289185798 C20.329432387624163 12.57528758598189, 20.127090777338182 12.75904888277798, 19.713189819059362 13.13494278186756 C19.530114891912593 13.280940164438693, 19.347039964765827 13.426937547009825, 18.84865665097348 13.82438497722225 C18.571959215903533 14.017397129888133, 18.295261780833584 14.210409282554018, 17.941727045881972 14.457019809384246 C17.728053667629265 14.586549866965187, 17.514380289376557 14.716079924546127, 16.99612777206793 15.030247646128467 C16.665802871440448 15.202577935202628, 16.335477970812967 15.374908224276787, 16.01574449977788 15.541712971316729 C15.655783138671092 15.701057188004313, 15.295821777564301 15.860401404691897, 15.004605834169212 15.989314064218874 C14.795780100199051 16.066163864683816, 14.58695436622889 16.14301366514876, 13.966866760907468 16.37121163593403 C13.722116716930161 16.443852164267298, 13.477366672952856 16.51649269260057, 12.906791572439019 16.685836387423254 C12.636565712088505 16.74751367665972, 12.366339851737989 16.809190965896192, 11.828736345098678 16.931895458095877 C11.529390632367289 16.980291351469614, 11.230044919635901 17.02868724484335, 10.737131039057738 17.108377738450994 C10.470218053629338 17.134126513145443, 10.20330506820094 17.15987528783989, 9.636461294667297 17.2145580249433 C9.287695688737184 17.22574225909441, 8.93893008280707 17.23692649324552, 8.531250000000004 17.25 C8.531250000000002 17.25, 8.53125 17.25, 8.53125 17.25 C1.8995070771928244 17.25, -4.732235845614351 17.25, -8.531249999999996 17.25 C-8.966008210132111 17.23605815040658, -9.400766420264226 17.222116300813166, -9.63646129466729 17.2145580249433 C-9.921114574325536 17.187097865400325, -10.205767853983781 17.15963770585735, -10.737131039057733 17.108377738450994 C-11.10638952929788 17.048678889391326, -11.475648019538028 16.98898004033166, -11.82873634509867 16.931895458095877 C-12.250350433923057 16.83566479361076, -12.671964522747444 16.739434129125648, -12.906791572438998 16.685836387423258 C-13.323592937855555 16.562131930002636, -13.740394303272112 16.438427472582017, -13.966866760907447 16.37121163593404 C-14.219377268961187 16.278285434788714, -14.471887777014926 16.18535923364339, -15.004605834169205 15.989314064218876 C-15.355123074258096 15.834150479756019, -15.705640314346988 15.678986895293162, -16.015744499777874 15.541712971316732 C-16.21906492884741 15.435640833704106, -16.422385357916948 15.329568696091478, -16.996127772067922 15.03024764612847 C-17.27456671226802 14.861456324290335, -17.553005652468112 14.692665002452198, -17.941727045881954 14.457019809384258 C-18.192138014214386 14.282343957991662, -18.442548982546814 14.107668106599066, -18.848656650973474 13.824384977222254 C-19.09442546011049 13.628390892118166, -19.340194269247505 13.432396807014076, -19.713189819059345 13.134942781867572 C-19.89134787300921 12.973144351074103, -20.069505926959078 12.811345920280633, -20.531773997910133 12.391526289185808 C-20.794023595588193 12.12073204849082, -21.05627319326625 11.84993780779583, -21.301045449549193 11.597190357007715 C-21.44478608298156 11.42834442990431, -21.58852671641393 11.259498502800904, -22.017843072573513 10.755199082063156 C-22.198845662203126 10.512672101634612, -22.37984825183274 10.270145121206069, -22.679221391797483 9.869012387107432 C-22.870253970282327 9.575535047124793, -23.061286548767168 9.282057707142156, -23.282462661842214 8.942271803356567 C-23.44059933041047 8.661484135239538, -23.598735998978725 8.38069646712251, -23.82508803493425 7.97878550665441 C-23.936295594892684 7.747860628940123, -24.047503154851114 7.516935751225836, -24.30486774702276 6.9825126688612995 C-24.3901202243886 6.771937401523156, -24.47537270175444 6.561362134185012, -24.719830280358362 5.957547188767567 C-24.8493742461112 5.567381403947994, -24.978918211864038 5.177215619128422, -25.068270464882396 4.90810086938531 C-25.134342376326142 4.656140035302737, -25.200414287769892 4.404179201220166, -25.348756485136455 3.8384861107464276 C-25.428039276822776 3.4313857318611367, -25.507322068509094 3.0242853529758458, -25.560135763899265 2.7530981893258 C-25.605571513838374 2.4007074851017243, -25.651007263777483 2.0483167808776486, -25.70153969837367 1.6563971969075233 C-25.727269214437747 1.255639215717951, -25.752998730501826 0.8548812345283785, -25.772387229461867 0.5528897131110537 C-25.772387229461867 0.2752292402311179, -25.772387229461867 -0.002431232648817949, -25.772387229461867 -0.5528897131110454 C-25.745316746702315 -0.9745343329914447, -25.718246263942763 -1.396178952871844, -25.70153969837367 -1.6563971969074995 C-25.662502330016135 -1.9591633170882212, -25.623464961658605 -2.2619294372689427, -25.560135763899265 -2.753098189325792 C-25.485748118094566 -3.135063028698413, -25.411360472289868 -3.517027868071034, -25.34875648513646 -3.8384861107464197 C-25.277785164039752 -4.109130517253299, -25.206813842943046 -4.379774923760179, -25.0682704648824 -4.908100869385301 C-24.93990670902067 -5.294712050053776, -24.811542953158934 -5.681323230722251, -24.719830280358373 -5.957547188767545 C-24.556950797848277 -6.35986265962805, -24.394071315338177 -6.762178130488554, -24.304867747022765 -6.982512668861291 C-24.204186871397066 -7.191578661323689, -24.10350599577137 -7.400644653786088, -23.825088034934254 -7.978785506654402 C-23.62644105694714 -8.331503331258265, -23.427794078960023 -8.684221155862128, -23.28246266184222 -8.942271803356562 C-23.09127637613544 -9.235985278908267, -22.900090090428655 -9.529698754459973, -22.67922139179749 -9.869012387107427 C-22.507792293038257 -10.09871176193262, -22.336363194279024 -10.328411136757813, -22.01784307257352 -10.75519908206315 C-21.84846194413684 -10.954163793584113, -21.679080815700164 -11.153128505105078, -21.3010454495492 -11.597190357007708 C-21.144633994375603 -11.758698026093738, -20.988222539202006 -11.920205695179767, -20.53177399791015 -12.39152628918579 C-20.344186209225942 -12.561888555567883, -20.15659842054173 -12.732250821949975, -19.713189819059366 -13.134942781867558 C-19.396258161948882 -13.387687344507572, -19.079326504838395 -13.640431907147587, -18.84865665097348 -13.824384977222248 C-18.51801313116335 -14.055027583314514, -18.18736961135322 -14.285670189406778, -17.941727045881976 -14.457019809384244 C-17.65705341109421 -14.629590639720558, -17.372379776306445 -14.80216147005687, -16.99612777206793 -15.030247646128466 C-16.764406466932222 -15.151136502593186, -16.53268516179651 -15.272025359057904, -16.01574449977788 -15.541712971316729 C-15.633057816853947 -15.711117013850043, -15.250371133930013 -15.880521056383355, -15.004605834169212 -15.98931406421887 C-14.722748145100821 -16.093040299259954, -14.440890456032431 -16.19676653430104, -13.96686676090747 -16.37121163593403 C-13.665692213464567 -16.460598660717626, -13.364517666021664 -16.549985685501216, -12.906791572439019 -16.68583638742325 C-12.608099442897924 -16.754010916842706, -12.30940731335683 -16.822185446262157, -11.82873634509868 -16.931895458095877 C-11.54507247553858 -16.97775603268019, -11.261408605978481 -17.023616607264504, -10.73713103905774 -17.108377738450994 C-10.29695098034293 -17.15084137932124, -9.85677092162812 -17.19330502019148, -9.6364612946673 -17.2145580249433 C-9.233745788709825 -17.22747232738118, -8.831030282752351 -17.240386629819053, -8.531250000000005 -17.25 C-8.531250000000004 -17.25, -8.531250000000002 -17.25, -8.53125 -17.25" stroke="none" stroke-width="0" fill="#0f2a5c" style="fill:#0f2a5c !important;stroke:#0f2a5c !important"/><path d="M-8.53125 -17.25 C-3.4123258212303433 -17.25, 1.7065983575393133 -17.25, 8.53125 -17.25 M-8.53125 -17.25 C-3.6012541983929625 -17.25, 1.328741603214075 -17.25, 8.53125 -17.25 M8.53125 -17.25 C8.53125 -17.25, 8.531249999999998 -17.25, 8.531249999999998 -17.25 M8.53125 -17.25 C8.53125 -17.25, 8.53125 -17.25, 8.531249999999998 -17.25 M8.531249999999998 -17.25 C8.795958475814421 -17.241511314404423, 9.060666951628845 -17.233022628808847, 9.636461294667296 -17.2145580249433 M8.531249999999998 -17.25 C8.850098107753414 -17.23977516178454, 9.168946215506832 -17.22955032356908, 9.636461294667296 -17.2145580249433 M9.636461294667296 -17.2145580249433 C10.051893277766817 -17.17448180116375, 10.467325260866337 -17.134405577384197, 10.737131039057726 -17.108377738450997 M9.636461294667296 -17.2145580249433 C9.98129705578202 -17.181292133794244, 10.326132816896745 -17.148026242645187, 10.737131039057726 -17.108377738450997 M10.737131039057726 -17.108377738450997 C10.96802738146945 -17.071048208437748, 11.198923723881174 -17.0337186784245, 11.828736345098669 -16.93189545809588 M10.737131039057726 -17.108377738450997 C11.145661834865491 -17.04232964758844, 11.554192630673255 -16.976281556725876, 11.828736345098669 -16.93189545809588 M11.828736345098669 -16.93189545809588 C12.121909989716045 -16.864980486848786, 12.41508363433342 -16.798065515601692, 12.906791572438998 -16.685836387423258 M11.828736345098669 -16.93189545809588 C12.218634624850951 -16.842903720066477, 12.608532904603235 -16.75391198203707, 12.906791572438998 -16.685836387423258 M12.906791572438998 -16.685836387423258 C13.319214109419285 -16.563431543297582, 13.731636646399572 -16.441026699171907, 13.966866760907457 -16.371211635934035 M12.906791572438998 -16.685836387423258 C13.279902365932877 -16.575099062412797, 13.653013159426756 -16.464361737402335, 13.966866760907457 -16.371211635934035 M13.966866760907457 -16.371211635934035 C14.219830175165816 -16.27811876111879, 14.472793589424176 -16.185025886303546, 15.004605834169203 -15.989314064218876 M13.966866760907457 -16.371211635934035 C14.353391058776367 -16.228967121326836, 14.739915356645277 -16.086722606719633, 15.004605834169203 -15.989314064218876 M15.004605834169203 -15.989314064218876 C15.384075429828671 -15.821334130786038, 15.763545025488142 -15.6533541973532, 16.015744499777878 -15.54171297131673 M15.004605834169203 -15.989314064218876 C15.21208751920389 -15.89746807697953, 15.419569204238574 -15.805622089740183, 16.015744499777878 -15.54171297131673 M16.015744499777878 -15.54171297131673 C16.362278010525394 -15.360926660725058, 16.70881152127291 -15.180140350133385, 16.996127772067922 -15.030247646128469 M16.015744499777878 -15.54171297131673 C16.356923126027876 -15.363720300537446, 16.698101752277875 -15.18572762975816, 16.996127772067922 -15.030247646128469 M16.996127772067922 -15.030247646128469 C17.214924071869692 -14.897612043398858, 17.43372037167146 -14.764976440669248, 17.94172704588196 -14.457019809384253 M16.996127772067922 -15.030247646128469 C17.218512649714658 -14.895436626420416, 17.44089752736139 -14.760625606712365, 17.94172704588196 -14.457019809384253 M17.94172704588196 -14.457019809384253 C18.160860545518332 -14.30416176617423, 18.3799940451547 -14.15130372296421, 18.848656650973474 -13.824384977222252 M17.94172704588196 -14.457019809384253 C18.228510271852546 -14.256972245592937, 18.515293497823127 -14.056924681801622, 18.848656650973474 -13.824384977222252 M18.848656650973474 -13.824384977222252 C19.15383162894572 -13.581016053336612, 19.459006606917963 -13.337647129450973, 19.713189819059345 -13.13494278186757 M18.848656650973474 -13.824384977222252 C19.081907634995574 -13.638373524533993, 19.315158619017673 -13.452362071845732, 19.713189819059345 -13.13494278186757 M19.713189819059345 -13.13494278186757 C20.020430479387308 -12.855914943300125, 20.32767113971527 -12.576887104732677, 20.53177399791014 -12.391526289185801 M19.713189819059345 -13.13494278186757 C19.932183158540532 -12.936058825197003, 20.151176498021723 -12.737174868526436, 20.53177399791014 -12.391526289185801 M20.53177399791014 -12.391526289185801 C20.785588135664828 -12.129442353425834, 21.039402273419515 -11.867358417665866, 21.301045449549193 -11.597190357007719 M20.53177399791014 -12.391526289185801 C20.771158601715396 -12.144342031915393, 21.01054320552065 -11.897157774644983, 21.301045449549193 -11.597190357007719 M21.301045449549193 -11.597190357007719 C21.501257888311695 -11.362009434026781, 21.7014703270742 -11.126828511045845, 22.017843072573513 -10.755199082063154 M21.301045449549193 -11.597190357007719 C21.570608684625498 -11.28054604250449, 21.840171919701802 -10.963901728001261, 22.017843072573513 -10.755199082063154 M22.017843072573513 -10.755199082063154 C22.21959306682674 -10.484872469566413, 22.421343061079966 -10.214545857069675, 22.679221391797483 -9.86901238710743 M22.017843072573513 -10.755199082063154 C22.194032576768816 -10.519121197635485, 22.370222080964115 -10.283043313207816, 22.679221391797483 -9.86901238710743 M22.679221391797483 -9.86901238710743 C22.88283493453907 -9.556207307564506, 23.086448477280655 -9.24340222802158, 23.28246266184222 -8.94227180335656 M22.679221391797483 -9.86901238710743 C22.89149350927749 -9.542905411613425, 23.10376562675749 -9.21679843611942, 23.28246266184222 -8.94227180335656 M23.28246266184222 -8.94227180335656 C23.48711215473166 -8.578895905723083, 23.691761647621096 -8.215520008089609, 23.825088034934254 -7.978785506654408 M23.28246266184222 -8.94227180335656 C23.432700917293214 -8.675508567530285, 23.58293917274421 -8.40874533170401, 23.825088034934254 -7.978785506654408 M23.825088034934254 -7.978785506654408 C23.93393508673717 -7.752762274631834, 24.042782138540087 -7.526739042609259, 24.30486774702276 -6.982512668861298 M23.825088034934254 -7.978785506654408 C23.994889871174653 -7.626188360523942, 24.164691707415052 -7.273591214393477, 24.30486774702276 -6.982512668861298 M24.30486774702276 -6.982512668861298 C24.3948851022295 -6.760168061133479, 24.484902457436245 -6.537823453405661, 24.719830280358362 -5.957547188767565 M24.30486774702276 -6.982512668861298 C24.442354255806947 -6.642918334043545, 24.579840764591133 -6.303323999225791, 24.719830280358362 -5.957547188767565 M24.719830280358362 -5.957547188767565 C24.85757701413414 -5.542675973596499, 24.995323747909918 -5.127804758425434, 25.068270464882396 -4.908100869385314 M24.719830280358362 -5.957547188767565 C24.850403537090312 -5.564281343514156, 24.98097679382226 -5.171015498260747, 25.068270464882396 -4.908100869385314 M25.068270464882396 -4.908100869385314 C25.15742940138341 -4.56809920277943, 25.246588337884425 -4.228097536173545, 25.34875648513646 -3.838486110746425 M25.068270464882396 -4.908100869385314 C25.138453889502298 -4.640461053620984, 25.2086373141222 -4.372821237856655, 25.34875648513646 -3.838486110746425 M25.34875648513646 -3.838486110746425 C25.423199010690325 -3.456239475460664, 25.497641536244192 -3.073992840174903, 25.560135763899265 -2.753098189325798 M25.34875648513646 -3.838486110746425 C25.392601938887907 -3.613348972472675, 25.43644739263935 -3.3882118341989247, 25.560135763899265 -2.753098189325798 M25.560135763899265 -2.753098189325798 C25.59061261857312 -2.5167257228110373, 25.62108947324698 -2.280353256296277, 25.70153969837367 -1.6563971969075135 M25.560135763899265 -2.753098189325798 C25.59618481227304 -2.4735088888285772, 25.632233860646814 -2.1939195883313563, 25.70153969837367 -1.6563971969075135 M25.70153969837367 -1.6563971969075135 C25.720759367479005 -1.3570353367542398, 25.73997903658434 -1.057673476600966, 25.772387229461867 -0.5528897131110516 M25.70153969837367 -1.6563971969075135 C25.7249952036439 -1.2910587693805677, 25.748450708914135 -0.9257203418536221, 25.772387229461867 -0.5528897131110516 M25.772387229461867 -0.5528897131110516 C25.772387229461867 -0.18546138977056698, 25.772387229461867 0.18196693356991767, 25.772387229461867 0.5528897131110474 M25.772387229461867 -0.5528897131110516 C25.772387229461867 -0.22830093041880778, 25.772387229461867 0.09628785227343606, 25.772387229461867 0.5528897131110474 M25.772387229461867 0.5528897131110474 C25.751009590375805 0.8858636975961106, 25.729631951289747 1.218837682081174, 25.70153969837367 1.6563971969075018 M25.772387229461867 0.5528897131110474 C25.757425913895364 0.7859242796159005, 25.74246459832886 1.0189588461207535, 25.70153969837367 1.6563971969075018 M25.70153969837367 1.6563971969075018 C25.665569758250033 1.9353729494383465, 25.629599818126394 2.214348701969191, 25.560135763899265 2.753098189325786 M25.70153969837367 1.6563971969075018 C25.664263430041753 1.9455045730580782, 25.626987161709835 2.2346119492086545, 25.560135763899265 2.753098189325786 M25.560135763899265 2.753098189325786 C25.48852101228377 3.1208248030882553, 25.41690626066827 3.488551416850724, 25.34875648513646 3.8384861107464214 M25.560135763899265 2.753098189325786 C25.5116811094186 3.0019025991891546, 25.463226454937935 3.2507070090525225, 25.34875648513646 3.8384861107464214 M25.34875648513646 3.8384861107464214 C25.260968205929824 4.173260867042201, 25.17317992672319 4.508035623337979, 25.068270464882396 4.908100869385303 M25.34875648513646 3.8384861107464214 C25.28295511468125 4.089415254786487, 25.21715374422604 4.340344398826551, 25.068270464882396 4.908100869385303 M25.068270464882396 4.908100869385303 C24.938062383783414 5.300266863815052, 24.807854302684436 5.692432858244802, 24.71983028035837 5.9575471887675535 M25.068270464882396 4.908100869385303 C24.95529047357317 5.248378602291647, 24.842310482263947 5.588656335197991, 24.71983028035837 5.9575471887675535 M24.71983028035837 5.9575471887675535 C24.581288962359658 6.299746922738536, 24.442747644360946 6.641946656709518, 24.304867747022765 6.982512668861292 M24.71983028035837 5.9575471887675535 C24.60734845605545 6.235379469483894, 24.49486663175253 6.513211750200236, 24.304867747022765 6.982512668861292 M24.304867747022765 6.982512668861292 C24.201776201619353 7.196584468697185, 24.098684656215944 7.410656268533078, 23.825088034934254 7.978785506654404 M24.304867747022765 6.982512668861292 C24.19157540226151 7.217766646825888, 24.078283057500254 7.453020624790485, 23.825088034934254 7.978785506654404 M23.825088034934254 7.978785506654404 C23.67850875526657 8.23905186046594, 23.531929475598883 8.499318214277475, 23.282462661842224 8.942271803356554 M23.825088034934254 7.978785506654404 C23.64744663066746 8.294205808072846, 23.469805226400666 8.609626109491288, 23.282462661842224 8.942271803356554 M23.282462661842224 8.942271803356554 C23.08450315681178 9.246390762653457, 22.886543651781338 9.550509721950359, 22.67922139179749 9.869012387107421 M23.282462661842224 8.942271803356554 C23.113019029837346 9.202582724102118, 22.94357539783247 9.462893644847682, 22.67922139179749 9.869012387107421 M22.67922139179749 9.869012387107421 C22.52278544112751 10.078622309396906, 22.36634949045753 10.288232231686392, 22.017843072573516 10.75519908206315 M22.67922139179749 9.869012387107421 C22.529422780895793 10.069728878781499, 22.3796241699941 10.270445370455576, 22.017843072573516 10.75519908206315 M22.017843072573516 10.75519908206315 C21.79456699366039 11.01747186912331, 21.571290914747262 11.279744656183471, 21.3010454495492 11.597190357007708 M22.017843072573516 10.75519908206315 C21.74543238389972 11.075188177586694, 21.473021695225917 11.395177273110239, 21.3010454495492 11.597190357007708 M21.3010454495492 11.597190357007708 C21.07063683107274 11.835106172484036, 20.84022821259628 12.073021987960365, 20.531773997910143 12.391526289185798 M21.3010454495492 11.597190357007708 C21.025702652410253 11.88150440111773, 20.750359855271306 12.165818445227753, 20.531773997910143 12.391526289185798 M20.531773997910143 12.391526289185798 C20.36172884489167 12.545956798008975, 20.19168369187319 12.700387306832152, 19.713189819059362 13.13494278186756 M20.531773997910143 12.391526289185798 C20.206565084006098 12.686872420237105, 19.881356170102055 12.982218551288414, 19.713189819059362 13.13494278186756 M19.713189819059362 13.13494278186756 C19.36818083959625 13.410078261914869, 19.023171860133136 13.68521374196218, 18.84865665097348 13.82438497722225 M19.713189819059362 13.13494278186756 C19.45148785854543 13.343643131195773, 19.189785898031502 13.552343480523987, 18.84865665097348 13.82438497722225 M18.84865665097348 13.82438497722225 C18.49957637614935 14.067888265498018, 18.15049610132522 14.311391553773788, 17.941727045881972 14.457019809384246 M18.84865665097348 13.82438497722225 C18.519545101416945 14.05395894718353, 18.190433551860412 14.283532917144809, 17.941727045881972 14.457019809384246 M17.941727045881972 14.457019809384246 C17.702742568432107 14.601893604043033, 17.463758090982243 14.74676739870182, 16.99612777206793 15.030247646128467 M17.941727045881972 14.457019809384246 C17.619335343452498 14.652455553980934, 17.29694364102302 14.847891298577622, 16.99612777206793 15.030247646128467 M16.99612777206793 15.030247646128467 C16.719003063034645 15.174823429324285, 16.44187835400136 15.3193992125201, 16.01574449977788 15.541712971316729 M16.99612777206793 15.030247646128467 C16.76790071385588 15.149313556211284, 16.53967365564383 15.268379466294103, 16.01574449977788 15.541712971316729 M16.01574449977788 15.541712971316729 C15.697618047574316 15.682538114821336, 15.37949159537075 15.823363258325942, 15.004605834169212 15.989314064218874 M16.01574449977788 15.541712971316729 C15.623874806237414 15.71518206024565, 15.232005112696944 15.888651149174574, 15.004605834169212 15.989314064218874 M15.004605834169212 15.989314064218874 C14.758990511962502 16.079702773234093, 14.513375189755791 16.170091482249312, 13.966866760907468 16.37121163593403 M15.004605834169212 15.989314064218874 C14.59157463887895 16.141313362104206, 14.178543443588685 16.29331265998954, 13.966866760907468 16.37121163593403 M13.966866760907468 16.37121163593403 C13.743746471391102 16.43743256668019, 13.520626181874736 16.50365349742635, 12.906791572439019 16.685836387423254 M13.966866760907468 16.37121163593403 C13.65100390369973 16.46495807395532, 13.335141046491989 16.558704511976604, 12.906791572439019 16.685836387423254 M12.906791572439019 16.685836387423254 C12.651804278612664 16.744035573291523, 12.39681698478631 16.80223475915979, 11.828736345098678 16.931895458095877 M12.906791572439019 16.685836387423254 C12.53019818437555 16.77179137074722, 12.15360479631208 16.857746354071182, 11.828736345098678 16.931895458095877 M11.828736345098678 16.931895458095877 C11.515314783830231 16.98256702550125, 11.201893222561784 17.033238592906624, 10.737131039057738 17.108377738450994 M11.828736345098678 16.931895458095877 C11.412675654557843 16.999160923943673, 10.99661496401701 17.06642638979147, 10.737131039057738 17.108377738450994 M10.737131039057738 17.108377738450994 C10.372325122468306 17.14357012648107, 10.007519205878875 17.17876251451115, 9.636461294667297 17.2145580249433 M10.737131039057738 17.108377738450994 C10.331235039133045 17.14753403740237, 9.925339039208353 17.18669033635374, 9.636461294667297 17.2145580249433 M9.636461294667297 17.2145580249433 C9.286266637501573 17.225788085986057, 8.936071980335846 17.237018147028813, 8.531250000000004 17.25 M9.636461294667297 17.2145580249433 C9.409640714587344 17.22183171946699, 9.182820134507391 17.229105413990677, 8.531250000000004 17.25 M8.531250000000004 17.25 C8.531250000000002 17.25, 8.53125 17.25, 8.53125 17.25 M8.531250000000004 17.25 C8.531250000000002 17.25, 8.531250000000002 17.25, 8.53125 17.25 M8.53125 17.25 C4.67542217268476 17.25, 0.8195943453695209 17.25, -8.531249999999996 17.25 M8.53125 17.25 C3.377689331913701 17.25, -1.7758713361725977 17.25, -8.531249999999996 17.25 M-8.531249999999996 17.25 C-8.841233110450284 17.24005944499338, -9.151216220900572 17.230118889986763, -9.63646129466729 17.2145580249433 M-8.531249999999996 17.25 C-8.886842988903119 17.23859682496564, -9.242435977806243 17.227193649931284, -9.63646129466729 17.2145580249433 M-9.63646129466729 17.2145580249433 C-9.917424995960983 17.187453794587785, -10.198388697254678 17.160349564232273, -10.737131039057733 17.108377738450994 M-9.63646129466729 17.2145580249433 C-9.954948910319427 17.183833907698737, -10.273436525971562 17.153109790454174, -10.737131039057733 17.108377738450994 M-10.737131039057733 17.108377738450994 C-11.164491609402436 17.039285395668383, -11.591852179747141 16.970193052885772, -11.82873634509867 16.931895458095877 M-10.737131039057733 17.108377738450994 C-11.118677196123832 17.046692314711187, -11.500223353189932 16.98500689097138, -11.82873634509867 16.931895458095877 M-11.82873634509867 16.931895458095877 C-12.20682544981684 16.84559908720594, -12.584914554535011 16.759302716316004, -12.906791572438998 16.685836387423258 M-11.82873634509867 16.931895458095877 C-12.136163276312306 16.861727267194574, -12.44359020752594 16.791559076293275, -12.906791572438998 16.685836387423258 M-12.906791572438998 16.685836387423258 C-13.258309644978434 16.581507668649568, -13.609827717517872 16.47717894987588, -13.966866760907447 16.37121163593404 M-12.906791572438998 16.685836387423258 C-13.243409857066537 16.585929847491236, -13.580028141694077 16.48602330755922, -13.966866760907447 16.37121163593404 M-13.966866760907447 16.37121163593404 C-14.280611188522952 16.255750786349836, -14.59435561613846 16.140289936765633, -15.004605834169205 15.989314064218876 M-13.966866760907447 16.37121163593404 C-14.26666933373477 16.26088151778898, -14.566471906562091 16.150551399643923, -15.004605834169205 15.989314064218876 M-15.004605834169205 15.989314064218876 C-15.261730476918636 15.87549261220523, -15.518855119668068 15.761671160191584, -16.015744499777874 15.541712971316732 M-15.004605834169205 15.989314064218876 C-15.370434589265468 15.827372526262211, -15.736263344361731 15.665430988305546, -16.015744499777874 15.541712971316732 M-16.015744499777874 15.541712971316732 C-16.29966641338011 15.393591090851112, -16.58358832698234 15.245469210385492, -16.996127772067922 15.03024764612847 M-16.015744499777874 15.541712971316732 C-16.36485219140186 15.359583712210648, -16.713959883025847 15.177454453104563, -16.996127772067922 15.03024764612847 M-16.996127772067922 15.03024764612847 C-17.187241139278285 14.91439359981874, -17.37835450648865 14.798539553509007, -17.941727045881954 14.457019809384258 M-16.996127772067922 15.03024764612847 C-17.25739472398718 14.871866084499983, -17.518661675906436 14.713484522871497, -17.941727045881954 14.457019809384258 M-17.941727045881954 14.457019809384258 C-18.264752921044504 14.231690942435625, -18.587778796207054 14.00636207548699, -18.848656650973474 13.824384977222254 M-17.941727045881954 14.457019809384258 C-18.146527012257362 14.31416021848843, -18.35132697863277 14.1713006275926, -18.848656650973474 13.824384977222254 M-18.848656650973474 13.824384977222254 C-19.186390317817168 13.555051365384731, -19.524123984660864 13.285717753547209, -19.713189819059345 13.134942781867572 M-18.848656650973474 13.824384977222254 C-19.07240332095918 13.6459529620576, -19.296149990944887 13.467520946892945, -19.713189819059345 13.134942781867572 M-19.713189819059345 13.134942781867572 C-20.013382862926175 12.862315402100414, -20.313575906793 12.589688022333256, -20.531773997910133 12.391526289185808 M-19.713189819059345 13.134942781867572 C-19.952159749999524 12.917916613385596, -20.191129680939703 12.700890444903619, -20.531773997910133 12.391526289185808 M-20.531773997910133 12.391526289185808 C-20.835712583592663 12.077684745646636, -21.13965116927519 11.763843202107463, -21.301045449549193 11.597190357007715 M-20.531773997910133 12.391526289185808 C-20.772186706664005 12.143280429146964, -21.01259941541788 11.89503456910812, -21.301045449549193 11.597190357007715 M-21.301045449549193 11.597190357007715 C-21.53571075304763 11.32153913868441, -21.770376056546073 11.045887920361103, -22.017843072573513 10.755199082063156 M-21.301045449549193 11.597190357007715 C-21.529758861769373 11.32853056885206, -21.758472273989554 11.059870780696405, -22.017843072573513 10.755199082063156 M-22.017843072573513 10.755199082063156 C-22.256033541538827 10.436045553247762, -22.494224010504137 10.116892024432367, -22.679221391797483 9.869012387107432 M-22.017843072573513 10.755199082063156 C-22.213112644699216 10.493555644838699, -22.408382216824915 10.231912207614242, -22.679221391797483 9.869012387107432 M-22.679221391797483 9.869012387107432 C-22.83424475155609 9.630854876917429, -22.98926811131469 9.392697366727425, -23.282462661842214 8.942271803356567 M-22.679221391797483 9.869012387107432 C-22.86402033141466 9.58511159039194, -23.048819271031842 9.301210793676445, -23.282462661842214 8.942271803356567 M-23.282462661842214 8.942271803356567 C-23.477567709422832 8.595843034848789, -23.67267275700345 8.24941426634101, -23.82508803493425 7.97878550665441 M-23.282462661842214 8.942271803356567 C-23.41412748534119 8.708487576725025, -23.54579230884017 8.474703350093483, -23.82508803493425 7.97878550665441 M-23.82508803493425 7.97878550665441 C-23.982345405153012 7.6522372126264555, -24.13960277537177 7.325688918598502, -24.30486774702276 6.9825126688612995 M-23.82508803493425 7.97878550665441 C-24.013394383357454 7.587763345043222, -24.201700731780658 7.196741183432033, -24.30486774702276 6.9825126688612995 M-24.30486774702276 6.9825126688612995 C-24.42310018569098 6.690476259482103, -24.5413326243592 6.398439850102905, -24.719830280358362 5.957547188767567 M-24.30486774702276 6.9825126688612995 C-24.420564896123036 6.696738473731419, -24.536262045223307 6.410964278601539, -24.719830280358362 5.957547188767567 M-24.719830280358362 5.957547188767567 C-24.801747508920162 5.7108255480773416, -24.883664737481958 5.464103907387116, -25.068270464882396 4.90810086938531 M-24.719830280358362 5.957547188767567 C-24.809537464176945 5.687363444004729, -24.899244647995523 5.417179699241892, -25.068270464882396 4.90810086938531 M-25.068270464882396 4.90810086938531 C-25.164737375584824 4.540230729853376, -25.261204286287256 4.172360590321443, -25.348756485136455 3.8384861107464276 M-25.068270464882396 4.90810086938531 C-25.125876979547986 4.6884222621440275, -25.183483494213576 4.468743654902746, -25.348756485136455 3.8384861107464276 M-25.348756485136455 3.8384861107464276 C-25.430228806667046 3.4201429588680963, -25.51170112819764 3.001799806989765, -25.560135763899265 2.7530981893258 M-25.348756485136455 3.8384861107464276 C-25.409501979794026 3.5265708342446414, -25.4702474744516 3.214655557742855, -25.560135763899265 2.7530981893258 M-25.560135763899265 2.7530981893258 C-25.615738486000428 2.3218544567085786, -25.67134120810159 1.8906107240913574, -25.70153969837367 1.6563971969075233 M-25.560135763899265 2.7530981893258 C-25.610240857957223 2.3644929741822187, -25.66034595201518 1.975887759038638, -25.70153969837367 1.6563971969075233 M-25.70153969837367 1.6563971969075233 C-25.722890397494112 1.3238428241324605, -25.74424109661456 0.9912884513573977, -25.772387229461867 0.5528897131110537 M-25.70153969837367 1.6563971969075233 C-25.7236821968539 1.3115099099748486, -25.745824695334132 0.9666226230421741, -25.772387229461867 0.5528897131110537 M-25.772387229461867 0.5528897131110537 C-25.772387229461867 0.2532788935880815, -25.772387229461867 -0.04633192593489077, -25.772387229461867 -0.5528897131110454 M-25.772387229461867 0.5528897131110537 C-25.772387229461867 0.24298751340299418, -25.772387229461867 -0.06691468630506536, -25.772387229461867 -0.5528897131110454 M-25.772387229461867 -0.5528897131110454 C-25.7526310903573 -0.860607526533131, -25.732874951252732 -1.1683253399552167, -25.70153969837367 -1.6563971969074995 M-25.772387229461867 -0.5528897131110454 C-25.748999184644788 -0.9171773896270321, -25.72561113982771 -1.281465066143019, -25.70153969837367 -1.6563971969074995 M-25.70153969837367 -1.6563971969074995 C-25.670580268504185 -1.8965124213442972, -25.639620838634702 -2.1366276457810947, -25.560135763899265 -2.753098189325792 M-25.70153969837367 -1.6563971969074995 C-25.65831088655509 -1.9916713248779736, -25.61508207473651 -2.326945452848448, -25.560135763899265 -2.753098189325792 M-25.560135763899265 -2.753098189325792 C-25.47586071845823 -3.185832736128361, -25.39158567301719 -3.61856728293093, -25.34875648513646 -3.8384861107464197 M-25.560135763899265 -2.753098189325792 C-25.511288456208774 -3.003918790434331, -25.46244114851828 -3.2547393915428704, -25.34875648513646 -3.8384861107464197 M-25.34875648513646 -3.8384861107464197 C-25.25638818439071 -4.190726474164751, -25.164019883644954 -4.542966837583082, -25.0682704648824 -4.908100869385301 M-25.34875648513646 -3.8384861107464197 C-25.284950281888925 -4.081806817512688, -25.221144078641387 -4.3251275242789555, -25.0682704648824 -4.908100869385301 M-25.0682704648824 -4.908100869385301 C-24.961518277825288 -5.2296214481501355, -24.854766090768177 -5.551142026914971, -24.719830280358373 -5.957547188767545 M-25.0682704648824 -4.908100869385301 C-24.942655375421282 -5.286433504795639, -24.817040285960168 -5.664766140205977, -24.719830280358373 -5.957547188767545 M-24.719830280358373 -5.957547188767545 C-24.624043783018244 -6.194141689103603, -24.528257285678116 -6.430736189439661, -24.304867747022765 -6.982512668861291 M-24.719830280358373 -5.957547188767545 C-24.629250051101486 -6.181282106281651, -24.5386698218446 -6.405017023795758, -24.304867747022765 -6.982512668861291 M-24.304867747022765 -6.982512668861291 C-24.157677083529197 -7.288157230981361, -24.010486420035633 -7.593801793101432, -23.825088034934254 -7.978785506654402 M-24.304867747022765 -6.982512668861291 C-24.11781665019649 -7.37092827367337, -23.930765553370218 -7.759343878485451, -23.825088034934254 -7.978785506654402 M-23.825088034934254 -7.978785506654402 C-23.62170673469013 -8.339909599827697, -23.418325434446007 -8.70103369300099, -23.28246266184222 -8.942271803356562 M-23.825088034934254 -7.978785506654402 C-23.654745527347146 -8.281245877924633, -23.484403019760034 -8.583706249194861, -23.28246266184222 -8.942271803356562 M-23.28246266184222 -8.942271803356562 C-23.11052242573749 -9.20641817843157, -22.93858218963276 -9.470564553506577, -22.67922139179749 -9.869012387107427 M-23.28246266184222 -8.942271803356562 C-23.041273498755732 -9.312803126216123, -22.800084335669244 -9.683334449075682, -22.67922139179749 -9.869012387107427 M-22.67922139179749 -9.869012387107427 C-22.519817389278987 -10.082599228478845, -22.360413386760488 -10.296186069850261, -22.01784307257352 -10.75519908206315 M-22.67922139179749 -9.869012387107427 C-22.48320047646459 -10.131662555780757, -22.287179561131687 -10.394312724454087, -22.01784307257352 -10.75519908206315 M-22.01784307257352 -10.75519908206315 C-21.75457538980468 -11.064448282598956, -21.491307707035833 -11.373697483134764, -21.3010454495492 -11.597190357007708 M-22.01784307257352 -10.75519908206315 C-21.780847790984573 -11.033587225231074, -21.543852509395627 -11.311975368398999, -21.3010454495492 -11.597190357007708 M-21.3010454495492 -11.597190357007708 C-21.105207982742737 -11.799408620040426, -20.909370515936274 -12.001626883073145, -20.53177399791015 -12.39152628918579 M-21.3010454495492 -11.597190357007708 C-21.015305399492444 -11.89224041838571, -20.729565349435685 -12.18729047976371, -20.53177399791015 -12.39152628918579 M-20.53177399791015 -12.39152628918579 C-20.222218165445653 -12.67265670583154, -19.912662332981157 -12.953787122477292, -19.713189819059366 -13.134942781867558 M-20.53177399791015 -12.39152628918579 C-20.219434842732195 -12.675184445877221, -19.907095687554243 -12.95884260256865, -19.713189819059366 -13.134942781867558 M-19.713189819059366 -13.134942781867558 C-19.478568712600286 -13.322046870738818, -19.24394760614121 -13.50915095961008, -18.84865665097348 -13.824384977222248 M-19.713189819059366 -13.134942781867558 C-19.428745270451717 -13.361779739994825, -19.14430072184407 -13.588616698122092, -18.84865665097348 -13.824384977222248 M-18.84865665097348 -13.824384977222248 C-18.61829164876516 -13.985077630422554, -18.38792664655684 -14.145770283622857, -17.941727045881976 -14.457019809384244 M-18.84865665097348 -13.824384977222248 C-18.63270594566906 -13.97502284088725, -18.416755240364633 -14.125660704552253, -17.941727045881976 -14.457019809384244 M-17.941727045881976 -14.457019809384244 C-17.670110904856653 -14.621675110267415, -17.398494763831327 -14.786330411150587, -16.99612777206793 -15.030247646128466 M-17.941727045881976 -14.457019809384244 C-17.645315347148777 -14.6367063230648, -17.348903648415575 -14.816392836745358, -16.99612777206793 -15.030247646128466 M-16.99612777206793 -15.030247646128466 C-16.784586951435195 -15.140608356754202, -16.57304613080246 -15.250969067379938, -16.01574449977788 -15.541712971316729 M-16.99612777206793 -15.030247646128466 C-16.692760217536613 -15.18851430501126, -16.389392663005296 -15.346780963894057, -16.01574449977788 -15.541712971316729 M-16.01574449977788 -15.541712971316729 C-15.717803595412917 -15.673602571576188, -15.419862691047953 -15.805492171835647, -15.004605834169212 -15.98931406421887 M-16.01574449977788 -15.541712971316729 C-15.783433151569307 -15.644550313897366, -15.551121803360735 -15.747387656478004, -15.004605834169212 -15.98931406421887 M-15.004605834169212 -15.98931406421887 C-14.678386744066476 -16.10936570491289, -14.352167653963738 -16.22941734560691, -13.96686676090747 -16.37121163593403 M-15.004605834169212 -15.98931406421887 C-14.606524698386005 -16.135811602008772, -14.208443562602799 -16.282309139798674, -13.96686676090747 -16.37121163593403 M-13.96686676090747 -16.37121163593403 C-13.683979967749892 -16.45517095124012, -13.401093174592313 -16.539130266546213, -12.906791572439019 -16.68583638742325 M-13.96686676090747 -16.37121163593403 C-13.686724932637615 -16.45435626007006, -13.406583104367762 -16.53750088420609, -12.906791572439019 -16.68583638742325 M-12.906791572439019 -16.68583638742325 C-12.501192459850921 -16.778411738089922, -12.095593347262822 -16.870987088756593, -11.82873634509868 -16.931895458095877 M-12.906791572439019 -16.68583638742325 C-12.498202344922033 -16.779094212310117, -12.08961311740505 -16.872352037196983, -11.82873634509868 -16.931895458095877 M-11.82873634509868 -16.931895458095877 C-11.41930112806557 -16.99808976876826, -11.009865911032461 -17.064284079440643, -10.73713103905774 -17.108377738450994 M-11.82873634509868 -16.931895458095877 C-11.591934932635763 -16.9701796740405, -11.355133520172844 -17.008463889985123, -10.73713103905774 -17.108377738450994 M-10.73713103905774 -17.108377738450994 C-10.472886214875812 -17.133869118838927, -10.208641390693886 -17.15936049922686, -9.6364612946673 -17.2145580249433 M-10.73713103905774 -17.108377738450994 C-10.453492155157928 -17.135740040455143, -10.169853271258114 -17.16310234245929, -9.6364612946673 -17.2145580249433 M-9.6364612946673 -17.2145580249433 C-9.226941950879688 -17.227690513217524, -8.817422607092078 -17.240823001491744, -8.531250000000005 -17.25 M-9.6364612946673 -17.2145580249433 C-9.232300769153163 -17.2275186663458, -8.828140243639028 -17.2404793077483, -8.531250000000005 -17.25 M-8.531250000000005 -17.25 C-8.531250000000004 -17.25, -8.531250000000002 -17.25, -8.53125 -17.25 M-8.531250000000005 -17.25 C-8.531250000000004 -17.25, -8.531250000000002 -17.25, -8.53125 -17.25" stroke="#0f2a5c" stroke-width="1.3" fill="none" stroke-dasharray="0 0" style="fill:#0f2a5c !important;stroke:#0f2a5c !important"/></g><g class="label" style="color:#fff !important" transform="translate(-13.96875, -9.75)"><rect/><foreignObject width="27.9375" height="19.5"><div style="color: rgb(255, 255, 255) !important; display: table-cell; white-space: nowrap; line-height: 1.5; text-align: center;" xmlns="http://www.w3.org/1999/xhtml"><span style="color:#fff !important" class="nodeLabel"><p>Start</p></span></div></foreignObject></g></g><g class="node default" id="flowchart-B-1" transform="translate(235.58383560180664, 311.5)"><rect class="basic label-container" style="" x="-101.0390625" y="-34.5" width="202.078125" height="69"/><g class="label" style="" transform="translate(-71.0390625, -19.5)"><rect/><foreignObject width="142.078125" height="39"><div xmlns="http://www.w3.org/1999/xhtml" style="display: table-cell; white-space: nowrap; line-height: 1.5; text-align: center;"><span class="nodeLabel"><p>Design survey questions<br />Workday HCM</p></span></div></foreignObject></g></g><g class="node default" id="flowchart-C-3" transform="translate(501.91977310180664, 311.5)"><polygon points="98.4375,0 196.875,-98.4375 98.4375,-196.875 0,-98.4375" class="label-container" transform="translate(-97.9375, 98.4375)" style="fill:#10b3c6 !important;stroke:#10b3c6 !important"/><g class="label" style="color:#fff !important" transform="translate(-73.6875, -9.75)"><rect/><foreignObject width="147.375" height="19.5"><div style="color: rgb(255, 255, 255) !important; display: table-cell; white-space: nowrap; line-height: 1.5; text-align: center;" xmlns="http://www.w3.org/1999/xhtml"><span style="color:#fff !important" class="nodeLabel"><p>Survey design complete?</p></span></div></foreignObject></g></g><g class="node default" id="flowchart-D-5" transform="translate(749.5838356018066, 311.5)"><rect class="basic label-container" style="" x="-78.7578125" y="-34.5" width="157.515625" height="69"/><g class="label" style="" transform="translate(-48.7578125, -19.5)"><rect/><foreignObject width="97.515625" height="39"><div xmlns="http://www.w3.org/1999/xhtml" style="display: table-cell; white-space: nowrap; line-height: 1.5; text-align: center;"><span class="nodeLabel"><p>Distribute survey<br />Workday HCM</p></span></div></foreignObject></g></g><g class="node default" id="flowchart-E-9" transform="translate(1010.4666481018066, 311.5)"><rect class="basic label-container" style="" x="-82.125" y="-34.5" width="164.25" height="69"/><g class="label" style="" transform="translate(-52.125, -19.5)"><rect/><foreignObject width="104.25" height="39"><div xmlns="http://www.w3.org/1999/xhtml" style="display: table-cell; white-space: nowrap; line-height: 1.5; text-align: center;"><span class="nodeLabel"><p>Collect responses<br />Snowflake</p></span></div></foreignObject></g></g><g class="node default" id="flowchart-F-11" transform="translate(1286.8416481018066, 207)"><polygon points="144.25,0 288.5,-144.25 144.25,-288.5 0,-144.25" class="label-container" transform="translate(-143.75, 144.25)" style="fill:#10b3c6 !important;stroke:#10b3c6 !important"/><g class="label" style="color:#fff !important" transform="translate(-100, -29.25)"><rect/><foreignObject width="200" height="58.5"><div style="color: rgb(255, 255, 255) !important; display: table; white-space: break-spaces; line-height: 1.5; text-align: center; width: 200px;" xmlns="http://www.w3.org/1999/xhtml"><span style="color:#fff !important" class="nodeLabel"><p>Data ingestion successful?<br />Feed completeness above 95 percent?</p></span></div></foreignObject></g></g><g class="node default" id="flowchart-G-13" transform="translate(1574.3025856018066, 187.25)"><rect class="basic label-container" style="" x="-70.203125" y="-34.5" width="140.40625" height="69"/><g class="label" style="" transform="translate(-40.203125, -19.5)"><rect/><foreignObject width="80.40625" height="39"><div xmlns="http://www.w3.org/1999/xhtml" style="display: table-cell; white-space: nowrap; line-height: 1.5; text-align: center;"><span class="nodeLabel"><p>Initial analysis<br />Databricks</p></span></div></foreignObject></g></g><g class="node default" id="flowchart-H-15" transform="translate(1574.3025856018066, 361.5)"><rect class="basic label-container" style="" x="-72.7421875" y="-34.5" width="145.484375" height="69"/><g class="label" style="" transform="translate(-42.7421875, -19.5)"><rect/><foreignObject width="85.484375" height="39"><div xmlns="http://www.w3.org/1999/xhtml" style="display: table-cell; white-space: nowrap; line-height: 1.5; text-align: center;"><span class="nodeLabel"><p>Re-ingest data<br />Snowflake</p></span></div></foreignObject></g></g><g class="node default" id="flowchart-I-19" transform="translate(1833.5213356018066, 187.25)"><rect class="basic label-container" style="" x="-86.4765625" y="-34.5" width="172.953125" height="69"/><g class="label" style="" transform="translate(-56.4765625, -19.5)"><rect/><foreignObject width="112.953125" height="39"><div xmlns="http://www.w3.org/1999/xhtml" style="display: table-cell; white-space: nowrap; line-height: 1.5; text-align: center;"><span class="nodeLabel"><p>Identify key themes<br />Databricks</p></span></div></foreignObject></g></g><g class="node default" id="flowchart-J-21" transform="translate(2120.3728981018066, 187.25)"><polygon points="133.515625,0 267.03125,-133.515625 133.515625,-267.03125 0,-133.515625" class="label-container" transform="translate(-133.015625, 133.515625)" style="fill:#10b3c6 !important;stroke:#10b3c6 !important"/><g class="label" style="color:#fff !important" transform="translate(-99.015625, -19.5)"><rect/><foreignObject width="198.03125" height="39"><div style="color: rgb(255, 255, 255) !important; display: table-cell; white-space: nowrap; line-height: 1.5; text-align: center;" xmlns="http://www.w3.org/1999/xhtml"><span style="color:#fff !important" class="nodeLabel"><p>Key themes identified?<br />Projected utilisation above target?</p></span></div></foreignObject></g></g><g class="node default" id="flowchart-K-23" transform="translate(2414.9119606018066, 187.25)"><rect class="basic label-container" style="" x="-90.5546875" y="-34.5" width="181.109375" height="69"/><g class="label" style="" transform="translate(-60.5546875, -19.5)"><rect/><foreignObject width="121.109375" height="39"><div xmlns="http://www.w3.org/1999/xhtml" style="display: table-cell; white-space: nowrap; line-height: 1.5; text-align: center;"><span class="nodeLabel"><p>Generate action plan<br />Workday HCM</p></span></div></foreignObject></g></g><g class="node default" id="flowchart-L-27" transform="translate(2726.5838356018066, 187.25)"><rect class="basic label-container" style="" x="-121.1171875" y="-34.5" width="242.234375" height="69"/><g class="label" style="" transform="translate(-91.1171875, -19.5)"><rect/><foreignObject width="182.234375" height="39"><div xmlns="http://www.w3.org/1999/xhtml" style="display: table-cell; white-space: nowrap; line-height: 1.5; text-align: center;"><span class="nodeLabel"><p>Engage stakeholders for review<br />Salesforce</p></span></div></foreignObject></g></g><g class="node default" id="flowchart-M-29" transform="translate(3058.8103981018066, 187.25)"><polygon points="144.25,0 288.5,-144.25 144.25,-288.5 0,-144.25" class="label-container" transform="translate(-143.75, 144.25)" style="fill:#10b3c6 !important;stroke:#10b3c6 !important"/><g class="label" style="color:#fff !important" transform="translate(-100, -29.25)"><rect/><foreignObject width="200" height="58.5"><div style="color: rgb(255, 255, 255) !important; display: table; white-space: break-spaces; line-height: 1.5; text-align: center; width: 200px;" xmlns="http://www.w3.org/1999/xhtml"><span style="color:#fff !important" class="nodeLabel"><p>Stakeholders approved?<br />Forecast error within tolerance band?</p></span></div></foreignObject></g></g><g class="node default" id="flowchart-N-31" transform="translate(3359.2713356018066, 187.25)"><rect class="basic label-container" style="" x="-85.7421875" y="-34.5" width="171.484375" height="69"/><g class="label" style="" transform="translate(-55.7421875, -19.5)"><rect/><foreignObject width="111.484375" height="39"><div xmlns="http://www.w3.org/1999/xhtml" style="display: table-cell; white-space: nowrap; line-height: 1.5; text-align: center;"><span class="nodeLabel"><p>Finalise action plan<br />Workday HCM</p></span></div></foreignObject></g></g><g class="node default" id="flowchart-O-35" transform="translate(3639.5603981018066, 187.25)"><rect class="basic label-container" style="" x="-94.546875" y="-34.5" width="189.09375" height="69"/><g class="label" style="" transform="translate(-64.546875, -19.5)"><rect/><foreignObject width="129.09375" height="39"><div xmlns="http://www.w3.org/1999/xhtml" style="display: table-cell; white-space: nowrap; line-height: 1.5; text-align: center;"><span class="nodeLabel"><p>Implement action plan<br />Workday HCM</p></span></div></foreignObject></g></g><g class="node default" id="flowchart-P-37" transform="translate(3945.2166481018066, 187.25)"><polygon points="144.25,0 288.5,-144.25 144.25,-288.5 0,-144.25" class="label-container" transform="translate(-143.75, 144.25)"/><g class="label" style="" transform="translate(-100, -29.25)"><rect/><foreignObject width="200" height="58.5"><div xmlns="http://www.w3.org/1999/xhtml" style="display: table; white-space: break-spaces; line-height: 1.5; text-align: center; width: 200px;"><span class="nodeLabel"><p>Supply gap closed below 10 percent?<br />Strategy generated?</p></span></div></foreignObject></g></g><g class="node default" id="flowchart-Q-39" transform="translate(4239.536960601807, 187.25)"><rect class="basic label-container" style="fill:#0f2a5c !important;stroke:#0f2a5c !important" x="-79.6015625" y="-34.5" width="159.203125" height="69"/><g class="label" style="color:#fff !important" transform="translate(-49.6015625, -19.5)"><rect/><foreignObject width="99.203125" height="39"><div style="color: rgb(255, 255, 255) !important; display: table-cell; white-space: nowrap; line-height: 1.5; text-align: center;" xmlns="http://www.w3.org/1999/xhtml"><span style="color:#fff !important" class="nodeLabel"><p>Monitor progress<br />Kubernetes</p></span></div></foreignObject></g></g><g class="node default" id="flowchart-R-43" transform="translate(4480.646335601807, 258.84375)"><rect class="basic label-container" style="" x="-111.5078125" y="-34.5" width="223.015625" height="69"/><g class="label" style="" transform="translate(-81.5078125, -19.5)"><rect/><foreignObject width="163.015625" height="39"><div xmlns="http://www.w3.org/1999/xhtml" style="display: table-cell; white-space: nowrap; line-height: 1.5; text-align: center;"><span class="nodeLabel"><p>Adjustments needed?<br />Forecast validation passed?</p></span></div></foreignObject></g></g><g class="node default" id="flowchart-S-47" transform="translate(4748.247898101807, 258.84375)"><rect class="basic label-container" style="fill:#0f2a5c !important;stroke:#0f2a5c !important" x="-89.234375" y="-34.5" width="178.46875" height="69"/><g class="label" style="color:#fff !important" transform="translate(-59.234375, -19.5)"><rect/><foreignObject width="118.46875" height="39"><div style="color: rgb(255, 255, 255) !important; display: table-cell; white-space: nowrap; line-height: 1.5; text-align: center;" xmlns="http://www.w3.org/1999/xhtml"><span style="color:#fff !important" class="nodeLabel"><p>Report to leadership<br />Workday HCM</p></span></div></foreignObject></g></g><g class="node default" id="flowchart-T-49" transform="translate(5048.880710601807, 258.84375)"><rect class="basic label-container" style="fill:#0f2a5c !important;stroke:#0f2a5c !important" x="-111.3984375" y="-34.5" width="222.796875" height="69"/><g class="label" style="color:#fff !important" transform="translate(-81.3984375, -19.5)"><rect/><foreignObject width="162.796875" height="39"><div style="color: rgb(255, 255, 255) !important; display: table-cell; white-space: nowrap; line-height: 1.5; text-align: center;" xmlns="http://www.w3.org/1999/xhtml"><span style="color:#fff !important" class="nodeLabel"><p>Post-implementation survey<br />Zendesk</p></span></div></foreignObject></g></g><g class="node default" id="flowchart-U-51" transform="translate(5344.466648101807, 258.84375)"><polygon points="117.328125,0 234.65625,-117.328125 117.328125,-234.65625 0,-117.328125" class="label-container" transform="translate(-116.828125, 117.328125)" style="fill:#10b3c6 !important;stroke:#10b3c6 !important"/><g class="label" style="color:#fff !important" transform="translate(-82.828125, -19.5)"><rect/><foreignObject width="165.65625" height="39"><div style="color: rgb(255, 255, 255) !important; display: table-cell; white-space: nowrap; line-height: 1.5; text-align: center;" xmlns="http://www.w3.org/1999/xhtml"><span style="color:#fff !important" class="nodeLabel"><p>Survey feedback received?<br />Leadership report reviewed?</p></span></div></foreignObject></g></g><g class="node default" id="flowchart-V-53" transform="translate(5608.740085601807, 258.84375)"><rect class="basic label-container" style="" x="-76.4765625" y="-34.5" width="152.953125" height="69"/><g class="label" style="" transform="translate(-46.4765625, -19.5)"><rect/><foreignObject width="92.953125" height="39"><div xmlns="http://www.w3.org/1999/xhtml" style="display: table-cell; white-space: nowrap; line-height: 1.5; text-align: center;"><span class="nodeLabel"><p>Evaluate impact<br />NetSuite</p></span></div></foreignObject></g></g><g class="node default" id="flowchart-W-57" transform="translate(5830.224460601807, 258.84375)"><rect class="basic label-container" style="fill:#10b3c6 !important;stroke:#10b3c6 !important" x="-95.0078125" y="-34.5" width="190.015625" height="69"/><g class="label" style="color:#fff !important" transform="translate(-65.0078125, -19.5)"><rect/><foreignObject width="130.015625" height="39"><div style="color: rgb(255, 255, 255) !important; display: table-cell; white-space: nowrap; line-height: 1.5; text-align: center;" xmlns="http://www.w3.org/1999/xhtml"><span style="color:#fff !important" class="nodeLabel"><p>Plan for future surveys<br />NetSuite</p></span></div></foreignObject></g></g></g></g></g></svg>